<?xml version="1.0" encoding="utf-8"?>
<!-- Generator: Adobe Illustrator 27.5.0, SVG Export Plug-In . SVG Version: 6.00 Build 0)  -->
<svg version="1.1" xmlns="http://www.w3.org/2000/svg" xmlns:xlink="http://www.w3.org/1999/xlink" x="0px" y="0px"
	 viewBox="0 0 500 500" style="enable-background:new 0 0 500 500;" xml:space="preserve">
<g id="BACKGROUND">
	<rect style="fill:#FFFFFF;" width="500" height="500"/>
</g>
<g id="OBJECTS">
	<g>
		<ellipse style="fill:#E3E5E8;" cx="254.058" cy="429.941" rx="221.255" ry="13.999"/>
	</g>
	<g>
		<g>
			<path style="fill:#D4D5D6;" d="M407.98,342.852l1.992,0.657l1.057,0.348l2.994,0.987c0,0,44.588-36.068,33.162-57.554
				c-3.517-6.614-14.15-6.204-20.115,15.909C421.541,323.698,407.98,342.852,407.98,342.852z"/>
			<g>
				<path style="fill:#C6C6C6;" d="M409.972,343.509l1.057,0.348c8.957-9.43,15.87-20.576,20.228-28.583
					c5.175-9.508,7.971-16.773,7.997-16.845c0.1-0.259-0.03-0.55-0.29-0.648c-0.259-0.1-0.55,0.03-0.649,0.289
					c-0.028,0.073-2.803,7.287-7.95,16.739C425.985,322.854,419.01,334.089,409.972,343.509z"/>
			</g>
		</g>
		<g>
			<path style="fill:#D4D5D6;" d="M117.122,156.76l-2.452,0.046l-1.301,0.024l-3.684,0.068c0,0-37.341-55.683-17.16-75.733
				c6.213-6.173,17.947-2.042,16.97,24.715C108.592,130.684,117.122,156.76,117.122,156.76z"/>
			<g>
				<path style="fill:#C6C6C6;" d="M114.67,156.806l-1.301,0.024c-6.747-13.626-10.618-28.461-12.72-38.91
					c-2.496-12.407-3.109-21.486-3.114-21.576c-0.022-0.324,0.224-0.604,0.548-0.624c0.324-0.022,0.604,0.224,0.626,0.547
					c0.006,0.091,0.614,9.107,3.098,21.441C103.92,128.207,107.83,143.163,114.67,156.806z"/>
			</g>
		</g>
		<g>
			<path style="fill:#E3E5E8;" d="M129.046,165.441l-2.953,1.971l-1.567,1.045l-4.438,2.96c0,0-89.006-38.719-80.061-78.922
				c2.753-12.377,20.284-16.504,39.989,16.877C98.283,140.315,129.046,165.441,129.046,165.441z"/>
			<g>
				<g>
					<path style="fill:#D4D5D6;" d="M126.093,167.412l-1.567,1.045c-18.866-11.342-35.171-26.403-45.893-37.5
						c-12.732-13.175-20.569-23.765-20.645-23.87c-0.28-0.378-0.199-0.911,0.18-1.188c0.378-0.28,0.911-0.199,1.189,0.178
						c0.078,0.107,7.86,10.622,20.52,23.718C90.654,140.943,107.1,156.122,126.093,167.412z"/>
				</g>
			</g>
		</g>
		<g>
			<path style="fill:#E3E5E8;" d="M397.637,349.79l2.194,2.1l1.164,1.113l3.298,3.154c0,0,80.737-19.372,79.184-54.568
				c-0.478-10.835-14.63-16.921-36.197,8.266C427.289,333.202,397.637,349.79,397.637,349.79z"/>
			<g>
				<path style="fill:#D4D5D6;" d="M399.831,351.889l1.164,1.113c17.58-6.746,33.556-17.008,44.238-24.759
					c12.685-9.204,20.863-16.958,20.943-17.036c0.292-0.277,0.303-0.738,0.025-1.028c-0.277-0.292-0.738-0.304-1.028-0.027
					c-0.082,0.078-8.202,7.778-20.815,16.926C433.622,334.867,417.509,345.205,399.831,351.889z"/>
			</g>
		</g>
		<g>
			<path style="fill:#D4D5D6;" d="M467.875,151.89c-3.499,9.946-13.565,9.135-13.754,17.34c-0.189,8.203-5.644,14.171-12.647,12.321
				c-7.005-1.852-12.056-3.605-15.687,4.387c-3.629,7.992-14.125,11.559-17.883,4.923c-0.937-1.651-1.948-3.441-2.936-5.196
				c-0.27-0.48-0.54-0.957-0.804-1.428c-0.062-0.109-0.124-0.217-0.184-0.326c-3.977-7.062-2.105-16.07,4.502-20.763
				c2.675-1.9,5.812-2.887,9.254-1.687c10.78,3.755,7.38-7.441,14.127-11.774c7.77-4.993,13.91,1.394,19.278-2.922
				C458.609,140.764,471.374,141.944,467.875,151.89z"/>
			<g>
				<path style="fill:#C6C6C6;" d="M454.61,155.611l-49.641,30.054c-0.27-0.48-0.54-0.957-0.804-1.428l49.595-30.027
					c0.387-0.234,0.891-0.111,1.125,0.276C455.12,154.873,454.996,155.377,454.61,155.611z"/>
			</g>
		</g>
		<g>
			<path style="fill:#E3E5E8;" d="M460.753,96.109c1.396,12.975-10.28,17.438-6.115,26.703c4.164,9.263,1.253,18.838-7.555,20.506
				c-8.811,1.667-15.388,2.403-15.182,13.265c0.209,10.862-9.612,20.444-17.348,15.036c-1.927-1.344-4.01-2.805-6.05-4.238
				c-0.557-0.392-1.113-0.782-1.66-1.166c-0.127-0.088-0.255-0.177-0.38-0.266c-8.209-5.767-10.922-16.826-6.044-25.593
				c1.975-3.548,4.951-6.324,9.436-6.819c14.044-1.555,4.275-12.247,9.499-20.685c6.016-9.721,16.28-5.861,19.974-13.545
				C444.469,88.623,459.357,83.134,460.753,96.109z"/>
			<g>
				<path style="fill:#D4D5D6;" d="M447.92,107.339l-39.418,60.042c-0.557-0.392-1.113-0.782-1.66-1.166l39.382-59.988
					c0.307-0.468,0.936-0.599,1.404-0.292C448.096,106.243,448.228,106.871,447.92,107.339z"/>
			</g>
		</g>
		<g>
			<path style="fill:#D4D5D6;" d="M47.721,353.601c9.25,3.153,14.43-4.642,20.515-0.076c6.083,4.565,13.557,4.014,16.224-2.147
				c2.667-6.163,4.286-10.848,12.188-8.91c7.902,1.939,16.517-3.661,13.839-10.202c-0.665-1.629-1.39-3.391-2.102-5.117
				c-0.195-0.471-0.388-0.942-0.579-1.404c-0.044-0.108-0.087-0.215-0.132-0.321c-2.863-6.946-10.497-10.746-17.704-8.625
				c-2.917,0.859-5.435,2.577-6.534,5.773c-3.445,10.005-9.651,1.109-16.675,3.538c-8.092,2.796-6.96,10.93-13.181,12.366
				C44.929,340.473,38.471,350.448,47.721,353.601z"/>
			<g>
				<path style="fill:#C6C6C6;" d="M58.036,346.072l50.349-18.924c-0.195-0.471-0.388-0.942-0.579-1.404l-50.304,18.907
					c-0.392,0.147-0.592,0.585-0.444,0.978C57.206,346.021,57.644,346.22,58.036,346.072z"/>
			</g>
		</g>
		<g>
			<path style="fill:#E3E5E8;" d="M23.8,316.589c8.65,8.455,18.594,2.51,22.954,10.856c4.36,8.343,13.002,11.713,19.267,6.254
				c6.266-5.461,10.572-9.83,18.366-3.452c7.792,6.379,20.401,4.72,20.898-4.015c0.126-2.174,0.257-4.529,0.382-6.837
				c0.034-0.63,0.069-1.259,0.102-1.877c0.009-0.143,0.017-0.287,0.024-0.429c0.506-9.285-5.994-17.601-15.175-19.075
				c-3.716-0.596-7.445-0.02-10.377,2.963c-9.184,9.337-11.371-3.908-20.512-4.94c-10.529-1.192-13.603,8.497-21.317,6.783
				C27.683,300.437,15.15,308.133,23.8,316.589z"/>
			<g>
				<path style="fill:#D4D5D6;" d="M39.337,313.681l66.33,5.714c0.034-0.63,0.069-1.259,0.102-1.877l-66.27-5.709
					c-0.517-0.045-0.973,0.338-1.017,0.855C38.437,313.181,38.82,313.637,39.337,313.681z"/>
			</g>
		</g>
		<g>
			<g>
				<path style="fill:#D4D5D6;" d="M362.935,157.957c6.57-18.165,13.282-33.267,19.986-44.958
					c8.759-15.273,17.542-24.725,26.107-28.091c0.568-0.223,1.209,0.056,1.432,0.624c0.223,0.568-0.056,1.209-0.624,1.432
					c-14.972,5.885-31.032,32.295-46.49,76.424L362.935,157.957z"/>
			</g>
			<path style="fill:#E3E5E8;" d="M391.864,100.034c0,0-8.447-3.728-1.312-18.324C390.551,81.71,401.864,91.084,391.864,100.034z"/>
			<path style="fill:#E3E5E8;" d="M387.796,107.369c0,0,3.252-8.642,18.223-2.33C406.018,105.039,397.288,116.855,387.796,107.369z"
				/>
			<path style="fill:#E3E5E8;" d="M403.421,89.363c0,0,0.185-9.232,16.403-8.272C419.824,81.091,415.533,95.142,403.421,89.363z"/>
			<path style="fill:#E3E5E8;" d="M379.157,121.872c0,0-9.211-0.651-7.433-16.8C371.724,105.072,385.54,110.067,379.157,121.872z"/>
			<path style="fill:#E3E5E8;" d="M376.144,129.972c0,0,1.709-9.074,17.545-5.446C393.689,124.526,387.134,137.673,376.144,129.972z
				"/>
			<path style="fill:#E3E5E8;" d="M370.917,140.652c0,0-9.221-0.476-7.75-16.656C363.167,123.995,377.076,128.728,370.917,140.652z"
				/>
		</g>
	</g>
	<g>
		<g>
			<path style="fill:#E3E5E8;" d="M296.467,97.263c1.489,0.693,2.983,1.428,4.44,2.185c0.147,0.077,0.305,0.113,0.46,0.113
				c0.361,0,0.71-0.196,0.888-0.539c0.255-0.49,0.064-1.094-0.426-1.348c-1.483-0.771-3.003-1.519-4.518-2.224
				c-0.501-0.234-1.096-0.016-1.329,0.485C295.749,96.436,295.967,97.03,296.467,97.263z"/>
			<path style="fill:#E3E5E8;" d="M305.246,101.826c1.421,0.82,2.844,1.682,4.23,2.564c0.167,0.106,0.352,0.157,0.536,0.157
				c0.331,0,0.654-0.164,0.845-0.463c0.297-0.466,0.159-1.084-0.307-1.381c-1.41-0.897-2.858-1.775-4.304-2.609
				c-0.478-0.276-1.09-0.112-1.366,0.367C304.603,100.938,304.767,101.55,305.246,101.826z"/>
			<path style="fill:#E3E5E8;" d="M287.318,93.486c1.544,0.559,3.098,1.161,4.617,1.788c0.125,0.051,0.254,0.076,0.381,0.076
				c0.393,0,0.766-0.233,0.925-0.619c0.211-0.51-0.032-1.095-0.543-1.306c-1.546-0.638-3.127-1.251-4.699-1.82
				c-0.52-0.189-1.093,0.08-1.281,0.6C286.53,92.725,286.798,93.298,287.318,93.486z"/>
			<path style="fill:#E3E5E8;" d="M258.435,87.158c1.636,0.139,3.289,0.315,4.912,0.524c0.043,0.006,0.086,0.008,0.129,0.008
				c0.496,0,0.926-0.368,0.991-0.873c0.07-0.548-0.316-1.049-0.864-1.119c-1.652-0.213-3.334-0.392-4.998-0.533
				c-0.551-0.047-1.035,0.362-1.081,0.912C257.476,86.628,257.884,87.112,258.435,87.158z"/>
			<path style="fill:#E3E5E8;" d="M268.231,88.419c1.615,0.28,3.246,0.6,4.847,0.95c0.072,0.016,0.144,0.023,0.215,0.023
				c0.46,0,0.874-0.319,0.976-0.786c0.118-0.54-0.224-1.073-0.763-1.191c-1.63-0.357-3.29-0.682-4.933-0.967
				c-0.543-0.094-1.062,0.27-1.156,0.814C267.322,87.807,267.687,88.325,268.231,88.419z"/>
			<path style="fill:#E3E5E8;" d="M313.588,107.135c1.345,0.941,2.687,1.924,3.988,2.921c0.181,0.139,0.395,0.206,0.608,0.206
				c0.301,0,0.598-0.135,0.795-0.392c0.336-0.438,0.253-1.066-0.185-1.402c-1.325-1.015-2.69-2.016-4.059-2.973
				c-0.453-0.317-1.076-0.206-1.393,0.246C313.025,106.195,313.135,106.819,313.588,107.135z"/>
			<path style="fill:#E3E5E8;" d="M277.879,90.531c1.586,0.421,3.182,0.882,4.745,1.372c0.1,0.031,0.2,0.046,0.299,0.046
				c0.426,0,0.82-0.274,0.954-0.701c0.165-0.527-0.129-1.088-0.656-1.253c-1.591-0.498-3.216-0.968-4.83-1.396
				c-0.533-0.142-1.081,0.176-1.223,0.71C277.028,89.842,277.346,90.389,277.879,90.531z"/>
			<path style="fill:#E3E5E8;" d="M325.152,116.403c0.192,0.175,0.434,0.262,0.675,0.262c0.271,0,0.541-0.11,0.738-0.325
				c0.373-0.408,0.344-1.04-0.063-1.413c-1.231-1.126-2.504-2.24-3.784-3.312c-0.423-0.355-1.054-0.299-1.409,0.124
				c-0.354,0.423-0.299,1.054,0.125,1.409C322.691,114.201,323.942,115.297,325.152,116.403z"/>
			<path style="fill:#E3E5E8;" d="M353.325,156.453c0.16,0.384,0.532,0.616,0.923,0.616c0.128,0,0.259-0.025,0.384-0.077
				c0.51-0.212,0.751-0.798,0.538-1.308c-0.639-1.533-1.322-3.076-2.031-4.586c-0.235-0.5-0.829-0.715-1.33-0.48
				c-0.5,0.235-0.715,0.83-0.48,1.33C352.026,153.431,352.697,154.947,353.325,156.453z"/>
			<path style="fill:#E3E5E8;" d="M344.186,139.002c0.191,0.298,0.513,0.461,0.843,0.461c0.185,0,0.371-0.051,0.538-0.158
				c0.465-0.298,0.601-0.916,0.303-1.381c-0.898-1.403-1.84-2.805-2.8-4.169c-0.318-0.452-0.942-0.56-1.393-0.242
				c-0.452,0.318-0.56,0.942-0.242,1.393C342.377,136.245,343.303,137.623,344.186,139.002z"/>
			<path style="fill:#E3E5E8;" d="M355.121,161.041c0.564,1.539,1.101,3.111,1.597,4.674c0.135,0.426,0.529,0.698,0.953,0.698
				c0.1,0,0.202-0.015,0.303-0.047c0.526-0.167,0.818-0.729,0.651-1.256c-0.505-1.591-1.052-3.191-1.626-4.758
				c-0.19-0.519-0.764-0.785-1.283-0.595C355.197,159.948,354.931,160.522,355.121,161.041z"/>
			<path style="fill:#E3E5E8;" d="M338.507,130.93c0.197,0.256,0.493,0.39,0.793,0.39c0.213,0,0.428-0.068,0.61-0.208
				c0.438-0.337,0.519-0.965,0.182-1.403c-1.018-1.321-2.079-2.638-3.153-3.912c-0.356-0.423-0.987-0.477-1.409-0.12
				c-0.422,0.356-0.476,0.987-0.121,1.409C336.463,128.339,337.506,129.632,338.507,130.93z"/>
			<path style="fill:#E3E5E8;" d="M332.146,123.379c0.197,0.215,0.466,0.323,0.736,0.323c0.242,0,0.484-0.087,0.676-0.264
				c0.407-0.374,0.433-1.007,0.059-1.413c-1.129-1.229-2.301-2.449-3.481-3.626c-0.391-0.39-1.024-0.389-1.414,0.002
				s-0.389,1.024,0.002,1.414C329.885,120.972,331.036,122.171,332.146,123.379z"/>
			<path style="fill:#E3E5E8;" d="M248.564,86.75h0.002l0.184,0c1.58,0,3.179,0.033,4.755,0.098
				c0.014,0.001,0.028,0.001,0.042,0.001c0.533,0,0.976-0.421,0.999-0.959c0.023-0.552-0.406-1.018-0.958-1.04
				c-1.603-0.066-3.23-0.1-4.837-0.1l-0.188,0c-0.552,0.001-0.999,0.45-0.998,1.002C247.565,86.304,248.013,86.75,248.564,86.75z"/>
			<path style="fill:#E3E5E8;" d="M349.138,147.531c0.179,0.341,0.527,0.536,0.887,0.536c0.156,0,0.315-0.037,0.463-0.114
				c0.489-0.256,0.678-0.86,0.422-1.35c-0.77-1.471-1.586-2.95-2.425-4.394c-0.277-0.478-0.889-0.64-1.367-0.363
				c-0.478,0.277-0.64,0.889-0.363,1.367C347.58,144.633,348.382,146.085,349.138,147.531z"/>
			<path style="fill:#E3E5E8;" d="M167.901,120.275c0.256,0,0.512-0.098,0.708-0.293c1.159-1.16,2.358-2.311,3.565-3.419
				c0.407-0.373,0.434-1.006,0.06-1.413c-0.374-0.407-1.006-0.434-1.413-0.06c-1.228,1.128-2.449,2.298-3.628,3.479
				c-0.39,0.391-0.39,1.024,0.001,1.414C167.389,120.178,167.645,120.275,167.901,120.275z"/>
			<path style="fill:#E3E5E8;" d="M238.608,87.194c0.029,0,0.059-0.001,0.089-0.004c1.632-0.143,3.29-0.253,4.929-0.326
				c0.552-0.025,0.979-0.492,0.955-1.044c-0.025-0.552-0.498-0.978-1.044-0.955c-1.668,0.074-3.355,0.186-5.016,0.332
				c-0.55,0.048-0.957,0.534-0.909,1.084C237.659,86.802,238.095,87.194,238.608,87.194z"/>
			<path style="fill:#E3E5E8;" d="M161.17,127.627c0.285,0,0.569-0.122,0.767-0.357c1.055-1.257,2.15-2.508,3.257-3.717
				c0.373-0.407,0.345-1.04-0.062-1.413c-0.407-0.373-1.04-0.345-1.413,0.062c-1.126,1.23-2.241,2.503-3.314,3.782
				c-0.355,0.423-0.3,1.054,0.124,1.409C160.716,127.55,160.944,127.627,161.17,127.627z"/>
			<path style="fill:#E3E5E8;" d="M149.24,143.817c0.157,0.091,0.329,0.134,0.499,0.134c0.346,0,0.682-0.179,0.867-0.5
				c0.821-1.421,1.684-2.843,2.566-4.228c0.297-0.466,0.16-1.084-0.306-1.381c-0.466-0.297-1.084-0.16-1.381,0.306
				c-0.898,1.409-1.777,2.857-2.612,4.303C148.598,142.93,148.762,143.541,149.24,143.817z"/>
			<path style="fill:#E3E5E8;" d="M140.226,167.527c0.146-0.489,0.294-0.976,0.446-1.46c0.165-0.527-0.128-1.088-0.655-1.253
				c-0.528-0.166-1.088,0.128-1.253,0.655c-0.214,0.681-0.421,1.369-0.623,2.058H140.226z"/>
			<path style="fill:#E3E5E8;" d="M144.711,152.711c0.137,0.064,0.28,0.094,0.422,0.094c0.377,0,0.738-0.214,0.907-0.578
				c0.694-1.489,1.43-2.982,2.188-4.439c0.255-0.49,0.064-1.094-0.425-1.349c-0.49-0.255-1.094-0.064-1.349,0.425
				c-0.771,1.482-1.521,3.002-2.227,4.517C143.993,151.883,144.21,152.478,144.711,152.711z"/>
			<path style="fill:#E3E5E8;" d="M140.976,161.974c0.113,0.041,0.228,0.06,0.341,0.06c0.409,0,0.793-0.253,0.94-0.659
				c0.561-1.546,1.163-3.099,1.791-4.616c0.211-0.51-0.032-1.095-0.542-1.306c-0.511-0.212-1.095,0.032-1.306,0.542
				c-0.639,1.544-1.252,3.125-1.822,4.698C140.189,161.212,140.457,161.785,140.976,161.974z"/>
			<path style="fill:#E3E5E8;" d="M154.528,135.357c0.175,0.122,0.375,0.181,0.573,0.181c0.315,0,0.626-0.149,0.82-0.427
				c0.941-1.344,1.925-2.685,2.923-3.987c0.336-0.438,0.253-1.066-0.185-1.402c-0.438-0.336-1.066-0.253-1.402,0.185
				c-1.016,1.324-2.017,2.689-2.975,4.057C153.965,134.417,154.075,135.041,154.528,135.357z"/>
			<path style="fill:#E3E5E8;" d="M209.504,93.669c0.114,0,0.23-0.02,0.343-0.061c1.541-0.564,3.114-1.1,4.675-1.594
				c0.527-0.167,0.818-0.729,0.652-1.255c-0.167-0.526-0.728-0.818-1.255-0.651c-1.589,0.503-3.19,1.049-4.758,1.623
				c-0.519,0.19-0.785,0.764-0.596,1.283C208.713,93.418,209.097,93.669,209.504,93.669z"/>
			<path style="fill:#E3E5E8;" d="M219.004,90.661c0.086,0,0.173-0.011,0.26-0.035c1.584-0.426,3.198-0.822,4.797-1.178
				c0.539-0.12,0.879-0.654,0.759-1.193c-0.12-0.539-0.653-0.879-1.193-0.759c-1.628,0.362-3.271,0.765-4.882,1.199
				c-0.533,0.143-0.849,0.692-0.706,1.225C218.159,90.367,218.562,90.661,219.004,90.661z"/>
			<path style="fill:#E3E5E8;" d="M175.24,113.537c0.227,0,0.456-0.077,0.643-0.235c1.254-1.055,2.549-2.097,3.846-3.096
				c0.438-0.337,0.519-0.965,0.182-1.402c-0.337-0.438-0.965-0.519-1.402-0.182c-1.321,1.017-2.637,2.076-3.914,3.15
				c-0.423,0.356-0.477,0.986-0.121,1.409C174.672,113.416,174.955,113.537,175.24,113.537z"/>
			<path style="fill:#E3E5E8;" d="M228.73,88.498c0.058,0,0.116-0.005,0.175-0.015c1.613-0.285,3.255-0.538,4.882-0.753
				c0.548-0.072,0.933-0.575,0.861-1.122c-0.072-0.548-0.574-0.935-1.122-0.861c-1.655,0.219-3.327,0.476-4.968,0.767
				c-0.544,0.096-0.907,0.615-0.811,1.159C227.832,88.157,228.254,88.498,228.73,88.498z"/>
			<path style="fill:#E3E5E8;" d="M200.329,97.489c0.142,0,0.287-0.03,0.424-0.095c1.482-0.694,2.998-1.365,4.507-1.993
				c0.51-0.212,0.751-0.798,0.539-1.307c-0.212-0.51-0.797-0.752-1.307-0.539c-1.536,0.639-3.079,1.322-4.587,2.028
				c-0.5,0.234-0.716,0.83-0.481,1.33C199.593,97.276,199.953,97.489,200.329,97.489z"/>
			<path style="fill:#E3E5E8;" d="M183.131,107.463c0.199,0,0.399-0.059,0.574-0.182c1.34-0.942,2.719-1.867,4.098-2.749
				c0.465-0.298,0.601-0.916,0.303-1.381c-0.298-0.465-0.916-0.601-1.381-0.303c-1.403,0.898-2.806,1.839-4.17,2.798
				c-0.452,0.317-0.561,0.941-0.243,1.393C182.506,107.314,182.816,107.463,183.131,107.463z"/>
			<path style="fill:#E3E5E8;" d="M191.515,102.099c0.17,0,0.343-0.044,0.501-0.135c1.417-0.822,2.87-1.623,4.319-2.381
				c0.489-0.256,0.679-0.86,0.423-1.35c-0.256-0.489-0.861-0.679-1.35-0.423c-1.475,0.771-2.954,1.587-4.396,2.423
				c-0.478,0.277-0.64,0.889-0.363,1.367C190.835,101.92,191.17,102.099,191.515,102.099z"/>
		</g>
		<g>
			<path style="fill:#FD4E5A;" d="M312.093,107.371c0,3.542-1.449,6.762-3.783,9.096c-2.334,2.334-5.554,3.783-9.096,3.783h-92.838
				c-7.084,0-12.879-5.796-12.879-12.879c0-1.503,0.263-2.951,0.741-4.293c0.649-1.825,1.701-3.461,3.043-4.803
				c1.733-1.733,3.955-2.979,6.434-3.504C204.416,74.346,221.197,58,241.793,58c13.475,0,25.319,6.998,32.091,17.559
				c1.894-0.601,3.912-0.923,6.01-0.923c0.649,0,1.288,0.032,1.916,0.091c10.067,0.966,17.94,9.445,17.94,19.764
				c0,0.005,0,0.005,0,0.011C306.587,94.786,312.093,100.47,312.093,107.371z"/>
			<g>
				<g>
					<path style="fill:#FFFFFF;" d="M260,87.125c-0.512,0-1.024-0.195-1.414-0.586l-9.086-9.086l-8.961,8.961
						c-0.781,0.781-2.047,0.781-2.828,0c-0.781-0.781-0.781-2.047,0-2.828l10.375-10.375c0.781-0.781,2.047-0.781,2.829,0l10.5,10.5
						c0.781,0.781,0.781,2.047,0,2.828C261.024,86.93,260.512,87.125,260,87.125z"/>
				</g>
				<g>
					<path style="fill:#FFFFFF;" d="M249.5,109.75c-1.105,0-2-0.895-2-2V74.625c0-1.105,0.895-2,2-2c1.104,0,2,0.895,2,2v33.125
						C251.5,108.855,250.604,109.75,249.5,109.75z"/>
				</g>
			</g>
		</g>
	</g>
	<g>
		<g>
			<path style="fill:#3C3C48;" d="M424.766,142.49v214.257c0,3.585-2.905,6.49-6.49,6.49H93.027c-3.585,0-6.49-2.905-6.49-6.49
				V142.49c0-3.585,2.905-6.49,6.49-6.49h325.249C421.861,136,424.766,138.905,424.766,142.49z"/>
			<path style="fill:#FFFFFF;" d="M415.795,151.672v195.893c0,3.642-2.949,6.591-6.591,6.591H102.09
				c-0.806,0-1.571-0.143-2.285-0.418c-2.51-0.918-4.295-3.336-4.295-6.173V151.672c0-3.643,2.949-6.591,6.581-6.591h307.114
				c0.877,0,1.724,0.174,2.489,0.49C414.102,146.55,415.795,148.917,415.795,151.672z"/>
			<g>
				<path style="fill:#E3E5E8;" d="M415.796,151.669v9.752H95.507v-9.752c0-3.639,2.949-6.587,6.587-6.587h307.115
					C412.847,145.081,415.796,148.03,415.796,151.669z"/>
				<g>
					<path style="fill:#FD4E5A;" d="M390.667,153.251c0,1.767-1.432,3.2-3.2,3.2c-1.767,0-3.199-1.432-3.199-3.2
						c0-1.767,1.432-3.2,3.199-3.2C389.234,150.051,390.667,151.484,390.667,153.251z"/>
					<path style="fill:#3C3C48;" d="M378.828,153.251c0,1.767-1.432,3.2-3.199,3.2s-3.2-1.432-3.2-3.2c0-1.767,1.433-3.2,3.2-3.2
						S378.828,151.484,378.828,153.251z"/>
					<path style="fill:#D7243A;" d="M402.506,153.251c0,1.767-1.432,3.2-3.199,3.2c-1.767,0-3.2-1.432-3.2-3.2
						c0-1.767,1.432-3.2,3.2-3.2C401.074,150.051,402.506,151.484,402.506,153.251z"/>
				</g>
			</g>
			<g>
				<g>
					<path style="fill:#E3E5E8;" d="M144.647,330.941V181.059c0-3.277,2.657-5.934,5.934-5.934h209.728
						c3.277,0,5.934,2.657,5.934,5.934v149.882c0,3.277-2.657,5.934-5.934,5.934H150.581
						C147.304,336.875,144.647,334.218,144.647,330.941z"/>
					<path style="fill:#FD4E5A;" d="M360.69,185.533v140.935c0,0.055,0,0.11-0.003,0.168c-0.087,2.602-2.228,4.688-4.853,4.688
						h-200.78c-1.51,0-2.863-0.69-3.753-1.775c-0.687-0.837-1.1-1.912-1.1-3.08V185.533c0-2.68,2.173-4.855,4.852-4.855h200.78
						C358.515,180.678,360.69,182.852,360.69,185.533z"/>
					
						<ellipse transform="matrix(0.2131 -0.977 0.977 0.2131 -23.1085 477.0314)" style="fill:#D7243A;" cx="284.589" cy="252.862" rx="35.73" ry="35.73"/>
					<path style="fill:#1A100E;" d="M360.686,291.462v35.172c-0.087,2.603-2.226,4.688-4.852,4.688H248.755l67.797-114.188
						l33.902,57.095L360.686,291.462z"/>
					<path style="fill:#3C3C48;" d="M319.242,331.322H155.056c-1.511,0-2.863-0.69-3.754-1.774l41.159-66.325l42.26-68.102
						l42.26,68.102L319.242,331.322z"/>
					<polygon style="fill:#FFFFFF;" points="207.323,239.274 234.721,259.782 262.119,239.274 234.721,195.123 					"/>
					<polygon style="fill:#FFFFFF;" points="293.478,256 316.554,274.229 339.63,256 316.554,217.135 					"/>
				</g>
				<g>
					<path style="fill:#E3E5E8;" d="M357.659,347h-4.985c-0.483,0-0.875-0.392-0.875-0.875s0.392-0.875,0.875-0.875h4.985
						c0.483,0,0.875,0.392,0.875,0.875S358.142,347,357.659,347z M347.688,347h-4.985c-0.483,0-0.875-0.392-0.875-0.875
						s0.392-0.875,0.875-0.875h4.985c0.483,0,0.875,0.392,0.875,0.875S348.172,347,347.688,347z M337.718,347h-4.985
						c-0.483,0-0.875-0.392-0.875-0.875s0.392-0.875,0.875-0.875h4.985c0.483,0,0.875,0.392,0.875,0.875S338.201,347,337.718,347z
						 M327.747,347h-4.985c-0.483,0-0.875-0.392-0.875-0.875s0.392-0.875,0.875-0.875h4.985c0.483,0,0.875,0.392,0.875,0.875
						S328.23,347,327.747,347z M317.777,347h-4.985c-0.483,0-0.875-0.392-0.875-0.875s0.392-0.875,0.875-0.875h4.985
						c0.483,0,0.875,0.392,0.875,0.875S318.26,347,317.777,347z M307.806,347h-4.985c-0.483,0-0.875-0.392-0.875-0.875
						s0.392-0.875,0.875-0.875h4.985c0.483,0,0.875,0.392,0.875,0.875S308.289,347,307.806,347z M297.836,347h-4.985
						c-0.483,0-0.875-0.392-0.875-0.875s0.392-0.875,0.875-0.875h4.985c0.483,0,0.875,0.392,0.875,0.875S298.319,347,297.836,347z
						 M287.865,347h-4.985c-0.483,0-0.875-0.392-0.875-0.875s0.392-0.875,0.875-0.875h4.985c0.483,0,0.875,0.392,0.875,0.875
						S288.348,347,287.865,347z M277.895,347h-4.985c-0.483,0-0.875-0.392-0.875-0.875s0.392-0.875,0.875-0.875h4.985
						c0.483,0,0.875,0.392,0.875,0.875S278.378,347,277.895,347z M267.924,347h-4.985c-0.483,0-0.875-0.392-0.875-0.875
						s0.392-0.875,0.875-0.875h4.985c0.483,0,0.875,0.392,0.875,0.875S268.407,347,267.924,347z M257.953,347h-4.985
						c-0.483,0-0.875-0.392-0.875-0.875s0.392-0.875,0.875-0.875h4.985c0.483,0,0.875,0.392,0.875,0.875S258.436,347,257.953,347z
						 M247.983,347h-4.985c-0.483,0-0.875-0.392-0.875-0.875s0.392-0.875,0.875-0.875h4.985c0.483,0,0.875,0.392,0.875,0.875
						S248.466,347,247.983,347z M238.012,347h-4.985c-0.483,0-0.875-0.392-0.875-0.875s0.392-0.875,0.875-0.875h4.985
						c0.483,0,0.875,0.392,0.875,0.875S238.495,347,238.012,347z M228.042,347h-4.985c-0.483,0-0.875-0.392-0.875-0.875
						s0.392-0.875,0.875-0.875h4.985c0.483,0,0.875,0.392,0.875,0.875S228.525,347,228.042,347z M218.071,347h-4.985
						c-0.483,0-0.875-0.392-0.875-0.875s0.392-0.875,0.875-0.875h4.985c0.483,0,0.875,0.392,0.875,0.875S218.554,347,218.071,347z
						 M208.1,347h-4.985c-0.483,0-0.875-0.392-0.875-0.875s0.392-0.875,0.875-0.875h4.985c0.483,0,0.875,0.392,0.875,0.875
						S208.584,347,208.1,347z M198.13,347h-4.985c-0.483,0-0.875-0.392-0.875-0.875s0.392-0.875,0.875-0.875h4.985
						c0.483,0,0.875,0.392,0.875,0.875S198.613,347,198.13,347z M188.159,347h-4.985c-0.483,0-0.875-0.392-0.875-0.875
						s0.392-0.875,0.875-0.875h4.985c0.483,0,0.875,0.392,0.875,0.875S188.643,347,188.159,347z M178.189,347h-4.985
						c-0.483,0-0.875-0.392-0.875-0.875s0.392-0.875,0.875-0.875h4.985c0.483,0,0.875,0.392,0.875,0.875S178.672,347,178.189,347z
						 M168.218,347h-4.985c-0.483,0-0.875-0.392-0.875-0.875s0.392-0.875,0.875-0.875h4.985c0.483,0,0.875,0.392,0.875,0.875
						S168.701,347,168.218,347z M158.248,347h-4.985c-0.483,0-0.875-0.392-0.875-0.875s0.392-0.875,0.875-0.875h4.985
						c0.483,0,0.875,0.392,0.875,0.875S158.731,347,158.248,347z M149.676,347c-1.78,0-3.524-0.307-5.184-0.914
						c-0.454-0.166-0.688-0.668-0.522-1.122c0.166-0.454,0.668-0.688,1.122-0.522c1.468,0.536,3.01,0.808,4.584,0.808
						c0.483,0,0.875,0.392,0.875,0.875S150.159,347,149.676,347z M362.641,346.929c-0.444,0-0.825-0.337-0.87-0.788
						c-0.048-0.481,0.303-0.91,0.784-0.958c1.56-0.156,3.067-0.581,4.478-1.263c0.436-0.211,0.959-0.028,1.169,0.406
						c0.21,0.435,0.029,0.958-0.407,1.169c-1.596,0.772-3.3,1.253-5.066,1.429C362.699,346.928,362.669,346.929,362.641,346.929z
						 M140.5,343.653c-0.199,0-0.399-0.067-0.563-0.205c-1.358-1.142-2.496-2.497-3.383-4.028c-0.242-0.418-0.1-0.954,0.318-1.196
						c0.419-0.242,0.954-0.099,1.196,0.318c0.785,1.355,1.793,2.555,2.995,3.566c0.37,0.311,0.418,0.863,0.106,1.233
						C140.997,343.547,140.749,343.653,140.5,343.653z M371.435,342.683c-0.22,0-0.441-0.083-0.611-0.249
						c-0.346-0.337-0.353-0.891-0.016-1.237c1.098-1.126,1.981-2.42,2.626-3.845c0.199-0.44,0.717-0.636,1.158-0.436
						c0.44,0.199,0.635,0.717,0.436,1.158c-0.729,1.611-1.728,3.073-2.968,4.345C371.89,342.595,371.663,342.683,371.435,342.683z
						 M135.611,335.198c-0.417,0-0.786-0.299-0.861-0.724c-0.151-0.862-0.228-1.746-0.228-2.628v-2.496
						c0-0.483,0.392-0.875,0.875-0.875c0.483,0,0.875,0.392,0.875,0.875v2.496c0,0.781,0.068,1.563,0.202,2.325
						c0.084,0.476-0.234,0.93-0.71,1.013C135.712,335.194,135.661,335.198,135.611,335.198z M375.455,333.781
						c-0.022,0-0.043-0.001-0.065-0.002c-0.482-0.035-0.844-0.455-0.809-0.937c0.024-0.33,0.036-0.665,0.036-0.996v-3.924
						c0-0.483,0.392-0.875,0.875-0.875c0.483,0,0.875,0.392,0.875,0.875v3.924c0,0.373-0.014,0.751-0.041,1.124
						C376.293,333.43,375.909,333.781,375.455,333.781z M135.397,325.241c-0.483,0-0.875-0.392-0.875-0.875v-4.985
						c0-0.483,0.392-0.875,0.875-0.875c0.483,0,0.875,0.392,0.875,0.875v4.985C136.272,324.849,135.881,325.241,135.397,325.241z
						 M375.493,323.812c-0.483,0-0.875-0.392-0.875-0.875v-4.985c0-0.483,0.392-0.875,0.875-0.875c0.483,0,0.875,0.392,0.875,0.875
						v4.985C376.368,323.42,375.976,323.812,375.493,323.812z M135.397,315.27c-0.483,0-0.875-0.392-0.875-0.875v-4.985
						c0-0.483,0.392-0.875,0.875-0.875c0.483,0,0.875,0.392,0.875,0.875v4.985C136.272,314.878,135.881,315.27,135.397,315.27z
						 M375.493,313.841c-0.483,0-0.875-0.392-0.875-0.875v-4.985c0-0.483,0.392-0.875,0.875-0.875c0.483,0,0.875,0.392,0.875,0.875
						v4.985C376.368,313.449,375.976,313.841,375.493,313.841z M135.397,305.299c-0.483,0-0.875-0.392-0.875-0.875v-4.985
						c0-0.483,0.392-0.875,0.875-0.875c0.483,0,0.875,0.392,0.875,0.875v4.985C136.272,304.908,135.881,305.299,135.397,305.299z
						 M375.493,303.871c-0.483,0-0.875-0.392-0.875-0.875v-4.985c0-0.483,0.392-0.875,0.875-0.875c0.483,0,0.875,0.392,0.875,0.875
						v4.985C376.368,303.479,375.976,303.871,375.493,303.871z M135.397,295.329c-0.483,0-0.875-0.392-0.875-0.875v-4.985
						c0-0.483,0.392-0.875,0.875-0.875c0.483,0,0.875,0.392,0.875,0.875v4.985C136.272,294.937,135.881,295.329,135.397,295.329z
						 M375.493,293.9c-0.483,0-0.875-0.392-0.875-0.875v-4.985c0-0.483,0.392-0.875,0.875-0.875c0.483,0,0.875,0.392,0.875,0.875
						v4.985C376.368,293.508,375.976,293.9,375.493,293.9z M135.397,285.358c-0.483,0-0.875-0.392-0.875-0.875v-4.985
						c0-0.483,0.392-0.875,0.875-0.875c0.483,0,0.875,0.392,0.875,0.875v4.985C136.272,284.966,135.881,285.358,135.397,285.358z
						 M375.493,283.929c-0.483,0-0.875-0.392-0.875-0.875v-4.985c0-0.483,0.392-0.875,0.875-0.875c0.483,0,0.875,0.392,0.875,0.875
						v4.985C376.368,283.538,375.976,283.929,375.493,283.929z M135.397,275.388c-0.483,0-0.875-0.392-0.875-0.875v-4.985
						c0-0.483,0.392-0.875,0.875-0.875c0.483,0,0.875,0.392,0.875,0.875v4.985C136.272,274.996,135.881,275.388,135.397,275.388z
						 M375.493,273.959c-0.483,0-0.875-0.392-0.875-0.875v-4.985c0-0.483,0.392-0.875,0.875-0.875c0.483,0,0.875,0.392,0.875,0.875
						v4.985C376.368,273.567,375.976,273.959,375.493,273.959z M135.397,265.417c-0.483,0-0.875-0.392-0.875-0.875v-4.985
						c0-0.483,0.392-0.875,0.875-0.875c0.483,0,0.875,0.392,0.875,0.875v4.985C136.272,265.025,135.881,265.417,135.397,265.417z
						 M375.493,263.988c-0.483,0-0.875-0.392-0.875-0.875v-4.985c0-0.483,0.392-0.875,0.875-0.875c0.483,0,0.875,0.392,0.875,0.875
						v4.985C376.368,263.596,375.976,263.988,375.493,263.988z M135.397,255.447c-0.483,0-0.875-0.392-0.875-0.875v-4.985
						c0-0.483,0.392-0.875,0.875-0.875c0.483,0,0.875,0.392,0.875,0.875v4.985C136.272,255.055,135.881,255.447,135.397,255.447z
						 M375.493,254.018c-0.483,0-0.875-0.392-0.875-0.875v-4.985c0-0.483,0.392-0.875,0.875-0.875c0.483,0,0.875,0.392,0.875,0.875
						v4.985C376.368,253.626,375.976,254.018,375.493,254.018z M135.397,245.476c-0.483,0-0.875-0.392-0.875-0.875v-4.985
						c0-0.483,0.392-0.875,0.875-0.875c0.483,0,0.875,0.392,0.875,0.875v4.985C136.272,245.084,135.881,245.476,135.397,245.476z
						 M375.493,244.047c-0.483,0-0.875-0.392-0.875-0.875v-4.985c0-0.483,0.392-0.875,0.875-0.875c0.483,0,0.875,0.392,0.875,0.875
						v4.985C376.368,243.656,375.976,244.047,375.493,244.047z M135.397,235.505c-0.483,0-0.875-0.392-0.875-0.875v-4.985
						c0-0.483,0.392-0.875,0.875-0.875c0.483,0,0.875,0.392,0.875,0.875v4.985C136.272,235.113,135.881,235.505,135.397,235.505z
						 M375.493,234.077c-0.483,0-0.875-0.392-0.875-0.875v-4.985c0-0.483,0.392-0.875,0.875-0.875c0.483,0,0.875,0.392,0.875,0.875
						v4.985C376.368,233.685,375.976,234.077,375.493,234.077z M135.397,225.535c-0.483,0-0.875-0.392-0.875-0.875v-4.985
						c0-0.483,0.392-0.875,0.875-0.875c0.483,0,0.875,0.392,0.875,0.875v4.985C136.272,225.143,135.881,225.535,135.397,225.535z
						 M375.493,224.106c-0.483,0-0.875-0.392-0.875-0.875v-4.985c0-0.483,0.392-0.875,0.875-0.875c0.483,0,0.875,0.392,0.875,0.875
						v4.985C376.368,223.714,375.976,224.106,375.493,224.106z M135.397,215.564c-0.483,0-0.875-0.392-0.875-0.875v-4.985
						c0-0.483,0.392-0.875,0.875-0.875c0.483,0,0.875,0.392,0.875,0.875v4.985C136.272,215.172,135.881,215.564,135.397,215.564z
						 M375.493,214.135c-0.483,0-0.875-0.392-0.875-0.875v-4.985c0-0.483,0.392-0.875,0.875-0.875c0.483,0,0.875,0.392,0.875,0.875
						v4.985C376.368,213.744,375.976,214.135,375.493,214.135z M135.397,205.594c-0.483,0-0.875-0.392-0.875-0.875v-4.985
						c0-0.483,0.392-0.875,0.875-0.875c0.483,0,0.875,0.392,0.875,0.875v4.985C136.272,205.202,135.881,205.594,135.397,205.594z
						 M375.493,204.165c-0.483,0-0.875-0.392-0.875-0.875v-4.985c0-0.483,0.392-0.875,0.875-0.875c0.483,0,0.875,0.392,0.875,0.875
						v4.985C376.368,203.773,375.976,204.165,375.493,204.165z M135.397,195.623c-0.483,0-0.875-0.392-0.875-0.875v-4.985
						c0-0.483,0.392-0.875,0.875-0.875c0.483,0,0.875,0.392,0.875,0.875v4.985C136.272,195.231,135.881,195.623,135.397,195.623z
						 M375.493,194.194c-0.483,0-0.875-0.392-0.875-0.875v-4.985c0-0.483,0.392-0.875,0.875-0.875c0.483,0,0.875,0.392,0.875,0.875
						v4.985C376.368,193.803,375.976,194.194,375.493,194.194z M135.397,185.652c-0.483,0-0.875-0.392-0.875-0.875v-4.624
						c0-0.128,0.002-0.256,0.005-0.383c0.012-0.483,0.416-0.865,0.897-0.853c0.483,0.012,0.865,0.414,0.852,0.897
						c-0.003,0.113-0.004,0.226-0.004,0.339v4.624C136.272,185.261,135.881,185.652,135.397,185.652z M375.493,184.224
						c-0.483,0-0.875-0.392-0.875-0.875v-3.196c0-0.559-0.035-1.123-0.104-1.676c-0.06-0.479,0.28-0.917,0.759-0.977
						c0.484-0.06,0.917,0.28,0.977,0.759c0.078,0.624,0.118,1.262,0.118,1.893v3.196
						C376.368,183.832,375.976,184.224,375.493,184.224z M136.386,175.807c-0.107,0-0.215-0.02-0.321-0.061
						c-0.45-0.177-0.67-0.685-0.493-1.135c0.649-1.645,1.575-3.154,2.752-4.486c0.32-0.362,0.873-0.396,1.235-0.076
						c0.362,0.32,0.396,0.873,0.076,1.235c-1.042,1.178-1.861,2.513-2.435,3.968C137.064,175.596,136.735,175.807,136.386,175.807z
						 M373.916,174.508c-0.317,0-0.623-0.173-0.779-0.474c-0.717-1.391-1.665-2.639-2.818-3.707
						c-0.354-0.329-0.375-0.882-0.047-1.237c0.328-0.354,0.882-0.375,1.237-0.047c1.302,1.207,2.373,2.616,3.183,4.188
						c0.221,0.43,0.053,0.957-0.377,1.179C374.188,174.476,374.051,174.508,373.916,174.508z M142.857,168.487
						c-0.31,0-0.61-0.165-0.769-0.456c-0.232-0.424-0.075-0.956,0.349-1.187c1.558-0.851,3.237-1.415,4.99-1.677
						c0.478-0.072,0.923,0.258,0.995,0.736c0.071,0.478-0.258,0.923-0.736,0.995c-1.549,0.232-3.033,0.73-4.41,1.482
						C143.142,168.452,142.998,168.487,142.857,168.487z M366.75,167.867c-0.113,0-0.229-0.022-0.34-0.069
						c-1.442-0.609-2.968-0.956-4.538-1.032c-0.483-0.023-0.855-0.434-0.832-0.916c0.023-0.483,0.427-0.855,0.917-0.832
						c1.775,0.086,3.502,0.479,5.134,1.168c0.445,0.188,0.654,0.701,0.466,1.146C367.415,167.666,367.091,167.867,366.75,167.867z
						 M356.93,166.75h-4.985c-0.483,0-0.875-0.392-0.875-0.875s0.392-0.875,0.875-0.875h4.985c0.483,0,0.875,0.392,0.875,0.875
						S357.413,166.75,356.93,166.75z M346.959,166.75h-4.985c-0.483,0-0.875-0.392-0.875-0.875s0.392-0.875,0.875-0.875h4.985
						c0.483,0,0.875,0.392,0.875,0.875S347.442,166.75,346.959,166.75z M336.988,166.75h-4.985c-0.483,0-0.875-0.392-0.875-0.875
						S331.52,165,332.003,165h4.985c0.483,0,0.875,0.392,0.875,0.875S337.472,166.75,336.988,166.75z M327.018,166.75h-4.985
						c-0.483,0-0.875-0.392-0.875-0.875S321.55,165,322.033,165h4.985c0.483,0,0.875,0.392,0.875,0.875
						S327.501,166.75,327.018,166.75z M317.047,166.75h-4.985c-0.483,0-0.875-0.392-0.875-0.875s0.392-0.875,0.875-0.875h4.985
						c0.483,0,0.875,0.392,0.875,0.875S317.53,166.75,317.047,166.75z M307.077,166.75h-4.985c-0.483,0-0.875-0.392-0.875-0.875
						s0.392-0.875,0.875-0.875h4.985c0.483,0,0.875,0.392,0.875,0.875S307.56,166.75,307.077,166.75z M297.106,166.75h-4.985
						c-0.483,0-0.875-0.392-0.875-0.875s0.392-0.875,0.875-0.875h4.985c0.483,0,0.875,0.392,0.875,0.875
						S297.589,166.75,297.106,166.75z M287.135,166.75h-4.985c-0.483,0-0.875-0.392-0.875-0.875S281.667,165,282.15,165h4.985
						c0.483,0,0.875,0.392,0.875,0.875S287.619,166.75,287.135,166.75z M277.165,166.75h-4.985c-0.483,0-0.875-0.392-0.875-0.875
						S271.697,165,272.18,165h4.985c0.483,0,0.875,0.392,0.875,0.875S277.648,166.75,277.165,166.75z M267.194,166.75h-4.985
						c-0.483,0-0.875-0.392-0.875-0.875s0.392-0.875,0.875-0.875h4.985c0.483,0,0.875,0.392,0.875,0.875
						S267.677,166.75,267.194,166.75z M257.224,166.75h-4.985c-0.483,0-0.875-0.392-0.875-0.875s0.392-0.875,0.875-0.875h4.985
						c0.483,0,0.875,0.392,0.875,0.875S257.707,166.75,257.224,166.75z M247.253,166.75h-4.985c-0.483,0-0.875-0.392-0.875-0.875
						s0.392-0.875,0.875-0.875h4.985c0.483,0,0.875,0.392,0.875,0.875S247.737,166.75,247.253,166.75z M237.283,166.75h-4.985
						c-0.483,0-0.875-0.392-0.875-0.875s0.392-0.875,0.875-0.875h4.985c0.483,0,0.875,0.392,0.875,0.875
						S237.766,166.75,237.283,166.75z M227.312,166.75h-4.985c-0.483,0-0.875-0.392-0.875-0.875s0.392-0.875,0.875-0.875h4.985
						c0.483,0,0.875,0.392,0.875,0.875S227.795,166.75,227.312,166.75z M217.342,166.75h-4.985c-0.483,0-0.875-0.392-0.875-0.875
						s0.392-0.875,0.875-0.875h4.985c0.483,0,0.875,0.392,0.875,0.875S217.825,166.75,217.342,166.75z M207.371,166.75h-4.985
						c-0.483,0-0.875-0.392-0.875-0.875s0.392-0.875,0.875-0.875h4.985c0.483,0,0.875,0.392,0.875,0.875
						S207.854,166.75,207.371,166.75z M197.4,166.75h-4.985c-0.483,0-0.875-0.392-0.875-0.875s0.392-0.875,0.875-0.875h4.985
						c0.483,0,0.875,0.392,0.875,0.875S197.884,166.75,197.4,166.75z M187.43,166.75h-4.985c-0.483,0-0.875-0.392-0.875-0.875
						s0.392-0.875,0.875-0.875h4.985c0.483,0,0.875,0.392,0.875,0.875S187.913,166.75,187.43,166.75z M177.459,166.75h-4.985
						c-0.483,0-0.875-0.392-0.875-0.875s0.392-0.875,0.875-0.875h4.985c0.483,0,0.875,0.392,0.875,0.875
						S177.942,166.75,177.459,166.75z M167.489,166.75h-4.985c-0.483,0-0.875-0.392-0.875-0.875S162.02,165,162.503,165h4.985
						c0.483,0,0.875,0.392,0.875,0.875S167.972,166.75,167.489,166.75z M157.518,166.75h-4.985c-0.483,0-0.875-0.392-0.875-0.875
						S152.05,165,152.533,165h4.985c0.483,0,0.875,0.392,0.875,0.875S158.001,166.75,157.518,166.75z"/>
				</g>
				<g>
					<path style="fill:#D7243A;" d="M180.75,193.75c0,11.322-9.178,20.5-20.5,20.5c-3.65,0-7.078-0.955-10.048-2.63v-26.087
						c0-2.68,2.173-4.855,4.852-4.855h20.985C178.982,184.227,180.75,188.783,180.75,193.75z"/>
					<g>
						<circle style="fill:#3C3C48;" cx="156.5" cy="189.792" r="20.5"/>
						<g>
							<g>
								<path style="fill:#FFFFFF;" d="M158.5,198.375v-17.167c0-1.104-0.895-2-2-2l0,0c-1.105,0-2,0.896-2,2v17.167
									c0,1.105,0.895,2,2,2l0,0C157.605,200.375,158.5,199.48,158.5,198.375z"/>
							</g>
							<g>
								<path style="fill:#FFFFFF;" d="M165.083,187.792h-17.167c-1.105,0-2,0.895-2,2l0,0c0,1.104,0.895,2,2,2h17.167
									c1.105,0,2-0.896,2-2l0,0C167.083,188.687,166.188,187.792,165.083,187.792z"/>
							</g>
						</g>
					</g>
				</g>
			</g>
		</g>
		<rect x="228.989" y="363.142" style="fill:#1A100E;" width="57.42" height="49.879"/>
		<path style="fill:#3C3C48;" d="M319.993,427.75H195.404v-3.941c0-7.515,6.092-13.607,13.607-13.607h97.376
			c7.515,0,13.607,6.092,13.607,13.607V427.75z"/>
	</g>
	<g>
		<g>
			<g>
				<g>
					<polygon style="fill:#FCBB8C;" points="439.962,413.935 440.138,422.364 433.757,422.156 433.018,413.615 					"/>
					<g>
						<path style="fill:#FD4E5A;" d="M437.374,420.856c0,0-3.185-0.748-4.058-0.704c-0.873,0.044-6.528,6.764-8.487,7.209
							c-3.552,0.807-3.389,6.387-1.206,6.598c6.314,0.612,16.993-2.369,16.993-2.369s0.776-7.189,0.277-9.423
							C440.395,419.933,439.151,421.464,437.374,420.856z"/>
						<g>
							<g>
								<path style="fill:#FFFFFF;" d="M432.35,427.125c0.113,0.021,0.234-0.002,0.335-0.074c0.196-0.14,0.24-0.412,0.1-0.608
									c-0.047-0.065-1.163-1.609-2.502-2.117c-1.781-0.679-3.001,0.416-3.053,0.463c-0.177,0.162-0.189,0.438-0.026,0.616
									c0.162,0.177,0.438,0.189,0.616,0.026c0.033-0.03,0.885-0.771,2.154-0.29c1.091,0.414,2.093,1.796,2.103,1.81
									C432.145,427.046,432.244,427.105,432.35,427.125z"/>
							</g>
							<g>
								<path style="fill:#FFFFFF;" d="M433.515,425.77c0.113,0.021,0.234-0.002,0.335-0.074c0.196-0.14,0.241-0.412,0.101-0.608
									c-0.047-0.065-1.163-1.609-2.502-2.117c-1.783-0.679-3.001,0.415-3.053,0.463c-0.177,0.162-0.189,0.438-0.026,0.616
									c0.163,0.177,0.438,0.19,0.616,0.026c0.034-0.029,0.886-0.771,2.154-0.29c1.096,0.417,2.093,1.796,2.103,1.81
									C433.31,425.69,433.409,425.749,433.515,425.77z"/>
							</g>
							<g>
								<path style="fill:#FFFFFF;" d="M430.702,428.298c0.113,0.021,0.234-0.002,0.335-0.074c0.196-0.14,0.241-0.412,0.1-0.608
									c-0.047-0.065-1.163-1.608-2.502-2.117c-1.783-0.679-3.001,0.415-3.053,0.462c-0.177,0.163-0.189,0.439-0.026,0.616
									c0.162,0.177,0.438,0.189,0.616,0.026c0.034-0.029,0.886-0.771,2.154-0.29c1.096,0.416,2.093,1.796,2.102,1.81
									C430.496,428.219,430.595,428.278,430.702,428.298z"/>
							</g>
						</g>
					</g>
				</g>
				<g>
					<path style="fill:#3C3C48;" d="M416.495,314.744c0,0,0.122,1.909,0.347,5.075c0.058,0.838,0.123,1.764,0.196,2.771
						c0.771,10.626,2.271,29.841,3.969,43.477c2.379,19.117,10.097,50.562,10.097,50.562l8.222-0.218l0.813-0.026l1.949-0.049
						c0,0-1.214-19.865-2.826-37.116c-1.063-11.377-1.537-38.281-1.735-55.271c-0.101-8.761-0.133-14.888-0.133-14.888
						L416.495,314.744z"/>
				</g>
				<path style="fill:#1A100E;" d="M416.495,314.744c0,0,0.122,1.909,0.347,5.075c0.058,0.838,0.123,1.764,0.196,2.771
					c3.787,0.738,14.209,1.31,20.489,1.359c-0.101-8.761-0.133-14.888-0.133-14.888L416.495,314.744z"/>
				<g>
					<path style="fill:#1A100E;" d="M432.88,319.806c0.003,0.652,0.277,62.547,6.445,96.604l0.814-0.026
						c-6.177-33.953-6.45-95.936-6.453-96.58L432.88,319.806z"/>
				</g>
			</g>
			<g>
				<g>
					<polygon style="fill:#FCBB8C;" points="391.096,415.114 391.309,422.446 398.012,422.144 398.224,414.362 					"/>
					<g>
						<g>
							<g>
								<path style="fill:#FD4E5A;" d="M393.02,422.122c0,0-1.445-1.913-2.582-1.823c-1.136,0.09-9.859,7.125-12.86,7.722
									c-3.001,0.597-2.402,2.805-1.843,3.932c0.559,1.127,23.969-0.594,23.969-0.594s0.594-6.976-0.186-9.103
									S395.373,422.611,393.02,422.122z"/>
								<g>
									<g>
										<path style="fill:#FFFFFF;" d="M388.206,427.022c0.107,0.031,0.225,0.02,0.329-0.04c0.201-0.117,0.27-0.374,0.153-0.575
											c-0.039-0.067-0.968-1.655-2.208-2.269c-1.649-0.819-2.924,0.119-2.978,0.16c-0.186,0.14-0.223,0.404-0.083,0.589
											c0.14,0.186,0.404,0.223,0.59,0.083c0.035-0.025,0.922-0.658,2.097-0.077c1.01,0.5,1.844,1.922,1.853,1.936
											C388.016,426.927,388.105,426.993,388.206,427.022z"/>
									</g>
									<g>
										<path style="fill:#FFFFFF;" d="M389.452,425.828c0.106,0.031,0.225,0.02,0.329-0.04c0.201-0.116,0.27-0.374,0.154-0.575
											c-0.039-0.067-0.968-1.655-2.207-2.269c-1.651-0.819-2.924,0.119-2.978,0.16c-0.185,0.14-0.223,0.404-0.083,0.589
											c0.14,0.186,0.404,0.223,0.589,0.083c0.035-0.025,0.923-0.658,2.097-0.077c1.014,0.502,1.844,1.922,1.852,1.936
											C389.262,425.733,389.352,425.799,389.452,425.828z"/>
									</g>
									<g>
										<path style="fill:#FFFFFF;" d="M386.512,427.996c0.107,0.031,0.225,0.021,0.329-0.04c0.201-0.117,0.27-0.374,0.154-0.575
											c-0.039-0.067-0.968-1.655-2.207-2.269c-1.65-0.819-2.924,0.119-2.978,0.16c-0.186,0.14-0.223,0.404-0.083,0.589
											c0.14,0.186,0.404,0.223,0.589,0.083c0.035-0.025,0.924-0.658,2.097-0.077c1.015,0.503,1.844,1.922,1.852,1.936
											C386.321,427.901,386.411,427.967,386.512,427.996z"/>
									</g>
								</g>
							</g>
						</g>
					</g>
				</g>
				<path style="fill:#3C3C48;" d="M389.861,417.017l6.815-0.454l0.812-0.05l1.655-0.111c0,0,4.494-39.785,5.878-50.381
					c1.203-9.206,6.646-29.867,10.176-42.722c1-3.649,1.848-6.669,2.405-8.62c0.426-1.535,0.677-2.407,0.677-2.407l-22.751-2.382
					c0,0-0.068,0.499-0.179,1.399c-0.236,1.841-0.689,5.367-1.238,9.799c-1.516,12.064-3.825,30.838-4.737,40.397
					C387.033,386.1,389.861,417.017,389.861,417.017z"/>
				<path style="fill:#1A100E;" d="M394.111,321.089l21.086,2.211c1-3.649,1.848-6.669,2.405-8.62l-22.253-3.389
					C395.113,313.13,394.659,316.656,394.111,321.089z"/>
				<g>
					<path style="fill:#1A100E;" d="M396.676,416.563l0.812-0.05c0.491-12.31,1.94-43.052,4.508-56.069
						c3.229-16.409,10.545-40.281,10.62-40.523l-0.774-0.237c-0.075,0.241-7.403,24.156-10.636,40.605
						C398.62,373.39,397.161,404.278,396.676,416.563z"/>
				</g>
			</g>
			<path style="fill:#D7243A;" d="M397.278,261.004c-2.98,10.071-10.856,17.31-10.856,17.31c-4.47,2.121-16.406,6.509-20.549,5.699
				c0.242-2.833-0.022-4.811-0.5-8.294c5.663-0.221,15.828-6.509,15.828-6.509c8.954-16.561,10.338-35.159,10.338-35.159
				C397.437,240.222,397.278,261.004,397.278,261.004z"/>
			<g>
				<g>
					<g>
						<g>
							<path style="fill:#FD4E5A;" d="M440.867,298.602c0.022,0.324,0.039,0.644,0.058,0.959c0.34,5.759,0.581,10.224,0.684,12.417
								c-5.471,1.842-10.975,3.151-16.512,3.937c-0.253,0.034-0.5,0.068-0.752,0.102c-0.135,0.018-0.269,0.035-0.404,0.05
								c-0.297,0.039-0.597,0.076-0.892,0.108c-0.33,0.041-0.659,0.078-0.992,0.115c-3.775,0.404-7.564,0.563-11.371,0.481
								c-0.769-0.018-1.534-0.045-2.304-0.082c-0.05-0.002-0.098-0.004-0.148-0.005c-0.195-0.009-0.391-0.021-0.589-0.033
								c-0.119-0.007-0.239-0.014-0.355-0.021c-4.436-0.26-8.891-0.855-13.369-1.776c-0.072-0.994-0.165-2.47-0.278-4.329
								c-0.021-0.346-0.042-0.701-0.062-1.073l0-0.002c-0.158-2.66-0.341-5.973-0.538-9.718c-0.017-0.32-0.034-0.642-0.051-0.969
								c-0.129-2.493-0.264-5.164-0.398-7.95c-0.015-0.323-0.032-0.645-0.046-0.97c-0.137-2.857-0.273-5.825-0.405-8.839
								c-0.08-1.84-0.159-3.697-0.233-5.557c-0.075-1.883-0.149-3.769-0.217-5.643c-0.015-0.408-0.03-0.816-0.043-1.224
								c-0.636-17.724-0.87-34.036,0.254-35.925c0.78-1.307,2.65-2.901,4.867-4.528c0.271-0.197,0.547-0.397,0.827-0.597
								c0.946-0.673,8.8-3.88,9.783-4.541l8.44-1.103c0.054,0.028,8.323,2.273,8.377,2.298c0.36,0.178,0.725,0.358,1.086,0.538
								c3.106,1.551,6.177,3.196,7.977,4.664c0.262,0.212,0.499,0.422,0.701,0.628c0.162,0.164,0.307,0.324,0.426,0.483
								c0.111,0.143,0.225,0.388,0.341,0.726c1.25,3.664,2.671,18.276,3.899,34.193c0.088,1.141,0.173,2.289,0.26,3.439
								c0.038,0.504,0.075,1.011,0.113,1.517c0.028,0.348,0.054,0.698,0.077,1.046c0.013,0.175,0.026,0.348,0.039,0.523
								c0.064,0.866,0.126,1.73,0.185,2.59c0.046,0.637,0.091,1.271,0.136,1.906C439.998,284.458,440.491,292.25,440.867,298.602z"
								/>
						</g>
					</g>
				</g>
				<g>
					<g>
						<g>
							<path style="fill:#D7243A;" d="M410.863,235.928c4.512-0.272,8.385-5.319,8.553-5.54c0.106-0.14,0.079-0.34-0.062-0.447
								c-0.14-0.107-0.34-0.079-0.447,0.062c-0.04,0.053-4.097,5.339-8.472,5.299c-0.175-0.002-0.32,0.14-0.322,0.316
								c-0.002,0.176,0.14,0.32,0.316,0.322C410.575,235.941,410.72,235.937,410.863,235.928z"/>
						</g>
					</g>
				</g>
				<g>
					<g>
						<g>
							<path style="fill:#D7243A;" d="M418.027,289.627c0.159-0.01,0.29-0.137,0.299-0.301c0.01-0.176-0.125-0.326-0.301-0.336
								c-11.736-0.639-17.78-20.522-17.84-20.723c-0.05-0.169-0.228-0.265-0.396-0.215c-0.169,0.05-0.265,0.228-0.215,0.396
								c0.249,0.837,6.236,20.515,18.417,21.178C418.002,289.628,418.015,289.628,418.027,289.627z"/>
						</g>
					</g>
				</g>
				<g>
					<g>
						<g>
							<path style="fill:#D7243A;" d="M413.018,283.802c0.107-0.006,0.208-0.066,0.262-0.168c0.083-0.155,0.025-0.349-0.13-0.432
								c-6.43-3.448-7.691-9.026-7.703-9.082c-0.037-0.172-0.205-0.284-0.378-0.245c-0.172,0.037-0.282,0.206-0.245,0.378
								c0.051,0.24,1.323,5.917,8.025,9.512C412.902,283.794,412.961,283.806,413.018,283.802z"/>
						</g>
					</g>
				</g>
			</g>
			<g>
				<path style="fill:#3C3C48;" d="M422.419,203.535c0,0,1.522-0.961,0.601-4.459c-0.921-3.497,1.228-4.586-0.21-6.524
					c-1.437-1.938-2.749-1.97-3.674-4.416c-0.926-2.446-6.18-4.063-9.463-2.604c-3.282,1.459-8.381-0.847-10.094,1.743
					c-3.101,4.689-1.077,6.401-2.256,7.452c-1.634,1.457-0.751,11.156,2.327,11.488
					C402.728,206.549,422.419,203.535,422.419,203.535z"/>
				<g>
					<path style="fill:#FB927E;" d="M400.384,205.175c0,0-2.149-2.532-3.496-0.25c-1.347,2.282,1.135,8.633,4.66,6.834
						L400.384,205.175z"/>
					<g>
						<path style="fill:#E6765D;" d="M400.637,209.805c-0.134,0.008-0.262-0.073-0.308-0.206c-0.682-1.966-2.802-2.652-2.824-2.658
							c-0.161-0.051-0.251-0.223-0.201-0.384c0.05-0.161,0.222-0.252,0.383-0.202c0.099,0.031,2.435,0.779,3.22,3.043
							c0.056,0.16-0.029,0.335-0.189,0.39C400.692,209.797,400.665,209.803,400.637,209.805z"/>
					</g>
					<g>
						<path style="fill:#E6765D;" d="M398.486,208.923c-0.057,0.003-0.115-0.009-0.169-0.039c-0.147-0.083-0.2-0.27-0.117-0.418
							c0.014-0.024,0.347-0.606,1.093-0.995c0.149-0.078,0.335-0.02,0.414,0.13c0.078,0.15,0.02,0.335-0.13,0.413
							c-0.577,0.301-0.839,0.748-0.842,0.752C398.682,208.862,398.586,208.917,398.486,208.923z"/>
					</g>
				</g>
				<g>
					<path style="fill:#FB927E;" d="M420.881,203.939c0,0,1.829-2.772,3.44-0.668c1.611,2.104-0.089,8.706-3.805,7.344
						L420.881,203.939z"/>
					<g>
						<path style="fill:#E6765D;" d="M421.186,208.566c0.134-0.008,0.251-0.104,0.281-0.241c0.44-2.033,2.463-2.969,2.484-2.978
							c0.154-0.07,0.223-0.251,0.154-0.405c-0.069-0.154-0.251-0.223-0.405-0.154c-0.095,0.043-2.324,1.066-2.832,3.408
							c-0.036,0.165,0.069,0.329,0.235,0.364C421.131,208.565,421.159,208.567,421.186,208.566z"/>
					</g>
					<g>
						<g>
							<path style="fill:#E6765D;" d="M423.216,207.432c0.057-0.003,0.113-0.022,0.162-0.059c0.137-0.1,0.166-0.292,0.066-0.429
								c-0.017-0.023-0.417-0.56-1.204-0.857c-0.158-0.06-0.335,0.02-0.395,0.179c-0.06,0.158,0.02,0.335,0.179,0.395
								c0.609,0.23,0.923,0.641,0.926,0.645C423.014,207.395,423.116,207.438,423.216,207.432z"/>
						</g>
					</g>
				</g>
				<path style="fill:#FCBB8C;" d="M416.26,216.385l0.388,6.441c0,0-1.723,3.396-4.307,3.776c-2.581,0.383-5.071-2.529-5.071-2.529
					l-0.402-6.667L416.26,216.385z"/>
				<path style="fill:#FB927E;" d="M416.26,216.385l0.172,2.858c-1.626,2.039-4.693,2.709-9.315,2.309l-0.25-4.146L416.26,216.385z"
					/>
				<path style="fill:#FCBB8C;" d="M422.052,199.435c0.033,2.51-0.016,5.655-0.344,8.185l0,0.007c0,0.007-0.002,0.014-0.003,0.024
					c0,0.002-0.002,0.002-0.002,0.005c-0.081,0.618-0.179,1.2-0.292,1.726c-0.068,0.308-0.143,0.631-0.229,0.962
					c-1.238,4.882-4.357,12.027-13.438,9.392c-3.824-1.109-6.007-4.858-7.253-8.991c-0.073-0.247-0.143-0.491-0.206-0.726
					c-0.043-0.157-0.084-0.309-0.122-0.459l-0.057-0.221c-0.009-0.038-0.016-0.064-0.019-0.081c-0.003-0.01-0.003-0.014-0.003-0.014
					c-0.781-3.189-1.067-6.444-1.164-8.777c-0.098-2.379,1.07-4.631,3.067-5.926c5.409-3.514,11.393-2.685,15.376-1.424
					C420.128,193.991,422.017,196.539,422.052,199.435z"/>
				<path style="fill:#3C3C48;" d="M415.737,204.49c0.042,0.688-0.279,1.266-0.717,1.293c-0.437,0.026-0.825-0.51-0.866-1.197
					c-0.041-0.688,0.279-1.266,0.716-1.293C415.307,203.267,415.695,203.803,415.737,204.49z"/>
				<path style="fill:#3C3C48;" d="M406.123,205.07c0.041,0.688-0.279,1.266-0.716,1.293c-0.437,0.026-0.825-0.51-0.866-1.197
					c-0.042-0.688,0.279-1.267,0.716-1.293C405.694,203.846,406.082,204.382,406.123,205.07z"/>
				<path style="fill:#3C3C48;" d="M418.046,200.452c0,0-3.204-1.465-5.781-0.508l0.178,1.414c0,0,3.714-0.119,5.537,0.734
					C418.176,201.561,418.229,201.017,418.046,200.452z"/>
				<path style="fill:#3C3C48;" d="M402.399,201.257c0,0,3.119-1.693,5.775-0.909l-0.082,1.434c0,0-3.741,0.136-5.515,1.119
					C402.344,202.381,402.254,201.838,402.399,201.257z"/>
				<g>
					<path style="fill:#FB927E;" d="M411.033,210.358c0.516-0.031,1.016-0.263,1.094-0.3c0.152-0.073,0.217-0.256,0.143-0.409
						c-0.073-0.153-0.257-0.217-0.409-0.144c-0.27,0.129-0.922,0.345-1.22,0.19c-0.057-0.03-0.137-0.091-0.168-0.276
						c-0.175-1.062-0.098-4.661-0.098-4.697c0.004-0.169-0.13-0.31-0.3-0.313c-0.17-0.004-0.309,0.131-0.313,0.3
						c-0.003,0.15-0.078,3.693,0.106,4.811c0.069,0.421,0.305,0.624,0.49,0.72C410.561,210.345,410.799,210.372,411.033,210.358z"/>
				</g>
				<path style="fill:#FFFFFF;" d="M407.329,212.921c0.303,1.155,1.204,3.258,3.806,3.102c2.607-0.157,3.22-2.166,3.39-3.535
					L407.329,212.921z"/>
				<path style="fill:#3C3C48;" d="M422.053,199.434c0.031,2.51-0.019,5.655-0.345,8.186l-1.374-0.014c0,0,0.204-2.134,0.274-3.52
					c0.07-1.386,0.175-3.976-1.02-4.226c-1.191-0.247-0.68-3.225-2.388-4.4c-1.708-1.178-5.377-1.308-7.693,0.318
					c-2.316,1.623-5.122,0.196-6.215,0.52c-1.095,0.321-2.509,1.942-2.015,3.346c0.496,1.401-0.676,2.344-0.883,3.84
					c-0.208,1.496,0.981,5.416,0.981,5.416l-1.291,0.342c-0.782-3.19-1.067-6.443-1.165-8.774c-0.098-2.38,1.069-4.631,3.067-5.928
					c5.411-3.514,11.394-2.686,15.377-1.425C420.128,193.991,422.017,196.54,422.053,199.434z"/>
			</g>
			<g>
				<polygon style="fill:#3C3C48;" points="423.937,248.791 431.011,241.441 374.419,241.441 367.23,248.909 				"/>
				<g>
					<path style="fill:#E3E5E8;" d="M422.965,252.878l-2.727-23.197c-0.062-0.53-0.542-0.908-1.071-0.846l-32.49,3.819
						c-0.529,0.062-0.908,0.542-0.846,1.071l2.727,23.198c0.062,0.529,0.542,0.908,1.071,0.846l32.49-3.819
						C422.649,253.887,423.028,253.408,422.965,252.878z"/>
					<path style="fill:#FD4E5A;" d="M386.771,234.281l2.572,21.883c0.001,0.008,0.002,0.017,0.003,0.026
						c0.061,0.402,0.431,0.687,0.839,0.639l31.175-3.665c0.234-0.028,0.432-0.159,0.55-0.344c0.091-0.143,0.136-0.317,0.115-0.498
						l-2.572-21.883c-0.049-0.416-0.426-0.714-0.842-0.665l-31.175,3.665C387.02,233.488,386.722,233.865,386.771,234.281z"/>
					<path style="fill:#D7243A;" d="M394.268,243.998c0.36,3.064,3.136,5.256,6.2,4.896c3.064-0.36,5.256-3.136,4.896-6.2
						c-0.36-3.064-3.136-5.256-6.2-4.896C396.1,238.159,393.908,240.934,394.268,243.998z"/>
					<path style="fill:#1A100E;" d="M388.705,250.729l0.642,5.461c0.061,0.402,0.431,0.687,0.839,0.639l16.626-1.954l-12.611-16.493
						l-4.222,9.484L388.705,250.729z"/>
					<path style="fill:#3C3C48;" d="M395.867,256.161l25.493-2.997c0.235-0.028,0.432-0.16,0.55-0.344l-7.601-9.547l-7.805-9.803
						l-5.319,11.345L395.867,256.161z"/>
					<polygon style="fill:#FFFFFF;" points="411.565,239.826 407.685,243.511 403.057,240.826 406.505,233.471 					"/>
					<polygon style="fill:#FFFFFF;" points="398.493,243.996 395.243,247.247 391.327,244.838 394.201,238.382 					"/>
				</g>
				<g>
					<path style="fill:#E3E5E8;" d="M385.963,261.388l11.051-21.033c0.196-0.373,0.052-0.835-0.321-1.032l-29.316-15.403
						c-0.374-0.196-0.836-0.053-1.032,0.321l-11.051,21.033c-0.196,0.374-0.053,0.836,0.321,1.032l29.316,15.403
						C385.305,261.905,385.767,261.762,385.963,261.388z"/>
					<path style="fill:#FD4E5A;" d="M366.713,225.409l-10.248,19.505c-0.004,0.008-0.008,0.015-0.012,0.023
						c-0.177,0.367-0.033,0.811,0.331,1.002l27.788,14.6c0.209,0.11,0.446,0.113,0.648,0.027c0.156-0.066,0.291-0.185,0.376-0.346
						l10.248-19.505c0.195-0.371,0.052-0.83-0.319-1.025l-27.788-14.6C367.367,224.895,366.908,225.038,366.713,225.409z"/>
					<path style="fill:#D7243A;" d="M367.404,237.663c-1.435,2.731-0.384,6.108,2.347,7.543c2.731,1.435,6.108,0.384,7.543-2.347
						c1.435-2.731,0.384-6.108-2.347-7.543C372.216,233.881,368.839,234.932,367.404,237.663z"/>
					<path style="fill:#1A100E;" d="M359.011,240.07l-2.558,4.868c-0.177,0.367-0.033,0.811,0.331,1.002l14.82,7.786l-1.08-20.734
						l-8.844,5.437L359.011,240.07z"/>
					<path style="fill:#3C3C48;" d="M361.848,248.6l22.723,11.939c0.209,0.11,0.447,0.113,0.649,0.027l-0.874-12.172l-0.897-12.498
						l-10.801,6.352L361.848,248.6z"/>
					<polygon style="fill:#FFFFFF;" points="384.031,243.999 378.748,244.845 376.447,240.015 383.45,235.896 					"/>
					<polygon style="fill:#FFFFFF;" points="370.891,240.049 366.372,240.894 364.503,236.693 370.523,232.992 					"/>
				</g>
				<g>
					<rect x="367.645" y="248.791" style="fill:#1A100E;" width="56.273" height="52.4"/>
					<polygon style="fill:#3C3C48;" points="412.3,301.19 356.027,301.19 356.027,248.672 412.3,248.791 					"/>
				</g>
				<polygon style="fill:#1A100E;" points="356.027,248.672 348.52,241.322 405.112,241.322 412.3,248.791 				"/>
			</g>
			<g>
				<g>
					<path style="fill:#FCBB8C;" d="M409.564,294.562l-1.356,0.572c-1.212,0.512-2.434,0.187-3.435-0.667
						c-0.442-0.377-1.139-1.115-1.491-1.321c-0.991-0.578-3.319-1.267-3.985-1.036c-0.667,0.23-0.038,1.385,0.643,1.721
						c0.681,0.335,1.687,0.703,2.389,1.286c0.702,0.583-2.216,3.599-3.512,4.561c-1.296,0.962-4.159,1.257-3.9,2.558
						c0.259,1.302,2.235,0.675,2.235,0.675s-0.102,1.314,1.854,1.542c0,0,0.164,1.176,1.423,1.308c0,0,0.449,1.387,1.783,1.24
						c1.334-0.148,5.485-0.636,10.883-8.1L409.564,294.562z"/>
				</g>
				<path style="fill:#D7243A;" d="M409.159,293.822c0,0,19.493-15.01,25.822-23.04c0,0-0.795-9.81-1.753-17.667
					c-0.62-5.091-0.726-10.234-0.25-15.34c0.267-2.865,0.702-5.632,1.41-7.279c0,0,5.468,1.787,8.514,20.27
					c1.658,10.061,2.204,18.023,2.384,22.17c0.091,2.091-0.604,4.137-1.949,5.741c-4.185,4.991-14.629,15.87-29.593,20.705
					C413.744,299.383,409.901,296.211,409.159,293.822z"/>
			</g>
			<path style="fill:#FCBB8C;" d="M354.448,273.36c0,0,3.662,0.822,4.679,2.26c1.017,1.438-4.097,1.109-4.097,1.109
				s6.173,0.443,6.349,1.937c0.176,1.494-5.833,1.236-5.833,1.236s4.137,0.937,4.386,2.068c0.249,1.132-4.151,1.123-4.151,1.123
				s3.203,1.075,3.487,1.912c0.283,0.837-3.426,1.27-5.32,0.811c-1.894-0.458-0.763-2.82-0.763-2.82s-0.658-2.22,0.103-2.997
				c0,0-0.881-1.989-0.327-3.11C352.96,276.889,351.997,273.638,354.448,273.36z"/>
		</g>
	</g>
	<g>
		<g>
			<g>
				<path style="fill:#FCBB8C;" d="M104.39,358.561c0,0,20.162,11.669,27.07,12.279c3.032,0.268,5.748-0.236,7.662-0.857
					c0.643-0.207,2.246-0.942,2.335-0.977c0.008-0.003,0.015-0.003,0.015-0.003c6.699-3.421,14.176-8.531,22.964-16.484
					l-3.275-4.219c0,0-5.72,3.571-13.118,6.876c-2.729,1.216-9.082,3.862-11.33,5.117c-0.689-0.05-1.376-0.126-2.057-0.23
					c-12.541-1.846-23.65-10.85-23.65-10.85C108.142,351.664,105.179,355.376,104.39,358.561z"/>
			</g>
			<g>
				<g>
					<g>
						<path style="fill:#FCBB8C;" d="M160.763,348.015c0,0,0.117-4.151,1.694-5.897c1.577-1.746,5.813-7.415,7.397-6.756
							c1.584,0.659,3.244,5.987-0.149,12.18c-2.162,3.945-5.404,4.99-5.404,4.99L160.763,348.015z"/>
					</g>
					<g>
						<g>
							<path style="fill:#1A100E;" d="M171.423,338.566l-5.42,10.655c-0.203,0.402-0.73,0.688-1.178,0.642l-5.916-0.603
								c-0.184-0.02-0.326-0.091-0.415-0.199l-0.026-0.036l-0.553-0.751l1.15-0.991l11.132-9.604l0.604-0.518l0.585,0.793
								l0.042,0.054c0.007,0.006,0.01,0.012,0.01,0.021C171.527,338.174,171.526,338.367,171.423,338.566z"/>
						</g>
						<g>
							<path style="fill:#1F2232;" d="M170.198,337.68l-11.132,9.604l4.822-9.483c0.203-0.399,0.73-0.688,1.175-0.642
								L170.198,337.68z"/>
						</g>
						<g>
							<g>
								<path style="fill:#3C3C48;" d="M164.264,349.102l-5.919-0.603c-0.446-0.046-0.643-0.406-0.44-0.805l5.421-10.655
									c0.203-0.399,0.729-0.686,1.176-0.641l5.919,0.603c0.446,0.046,0.643,0.406,0.44,0.805l-5.42,10.655
									C165.237,348.861,164.71,349.147,164.264,349.102z"/>
							</g>
						</g>
						<g>
							<path style="fill:#616077;" d="M164.375,347.505l-4.585-0.467c-0.446-0.045-0.643-0.406-0.44-0.805l4.215-8.287
								c0.203-0.399,0.73-0.686,1.176-0.641l4.585,0.467c0.446,0.046,0.643,0.406,0.44,0.805l-4.215,8.287
								C165.348,347.264,164.821,347.551,164.375,347.505z"/>
						</g>
						<g>
							<path style="fill:#1F2232;" d="M171.443,338.026l-0.003,0.003c0-0.009-0.004-0.015-0.01-0.021L171.443,338.026z"/>
						</g>
					</g>
					<g>
						<path style="fill:#FCBB8C;" d="M161.649,340.334c0,0,1.236-0.243,1.721,0.719c0.485,0.962-0.748,0.958-1.528,0.991
							c-0.78,0.033-1.329,0.484-1.384,0.633C160.283,343.148,159.483,340.785,161.649,340.334z"/>
					</g>
					<g>
						<path style="fill:#FCBB8C;" d="M168.863,343.892c0,0,0.738-3.683,1.546-5.842c0.538-1.438,1.595-0.02,1.357,1.323
							C171.528,340.716,171.086,343.438,168.863,343.892z"/>
					</g>
				</g>
			</g>
		</g>
		<g>
			<path style="fill:#FD4E5A;" d="M77.171,362.395c1.983,7.243,6.656,20.573,9.706,32.011c5.413,13.424,6.991,23.91,9.933,29.521
				c0,0,23.445-6.638,29.697-14.564l-4.415-12.061c-3.417-6.273-5.794-13.06-7.037-20.093c-0.016-0.079-0.029-0.161-0.043-0.241
				c0.188-0.334,0.36-0.719,0.518-1.144c0.664-1.789,1.051-4.261,1.015-6.435c-0.018-1.075-0.138-2.075-0.381-2.883
				c-1.213-4.033-3.085-9.479-3.425-10.464v-0.002l-0.286-4.631c-0.102-1.638-1.406-2.948-3.045-3.052l-12.994-0.828l-16.856,9.242
				C77.558,357.872,76.57,360.195,77.171,362.395z"/>
			<g>
				<path style="fill:#D7243A;" d="M120.665,406.096c0,0-0.001,0-0.002,0c-7.616,1.229-14.687-1.156-19.277-3.374
					c-4.964-2.398-8.185-5.129-8.217-5.156c-0.156-0.133-0.174-0.367-0.041-0.523c0.133-0.156,0.368-0.174,0.523-0.041
					c0.031,0.027,3.193,2.705,8.076,5.061c4.49,2.167,11.399,4.498,18.817,3.3c0.202-0.033,0.393,0.105,0.426,0.307
					C121.004,405.872,120.867,406.062,120.665,406.096z"/>
			</g>
			<g>
				<path style="fill:#D7243A;" d="M113.163,409.997c-6.604,1.096-13.814-1.575-14.142-1.699c-0.192-0.072-0.289-0.286-0.217-0.478
					c0.072-0.192,0.286-0.288,0.478-0.217c0.085,0.032,8.568,3.172,15.321,1.321c0.2-0.057,0.402,0.062,0.456,0.26
					c0.054,0.198-0.062,0.402-0.26,0.456C114.261,409.788,113.714,409.906,113.163,409.997z"/>
			</g>
			<g>
				<path style="fill:#D7243A;" d="M94.166,361.832c-0.173,0.029-0.346-0.068-0.409-0.238c-0.071-0.193,0.028-0.406,0.221-0.476
					c8.987-3.3,10.793-9.733,10.81-9.798c0.053-0.198,0.256-0.316,0.454-0.263c0.198,0.053,0.316,0.256,0.263,0.454
					c-0.074,0.279-1.926,6.872-11.271,10.304C94.211,361.822,94.188,361.828,94.166,361.832z"/>
			</g>
			<g>
				<g>
					<path style="fill:#D7243A;" d="M105.148,380.713c0.027,0.178,0.179,0.309,0.353,0.315c0.024,0,0.046-0.001,0.07-0.003
						c4.383-0.668,7.434-2.247,9.484-3.815c-0.016-0.079-0.029-0.161-0.043-0.241c0.188-0.334,0.36-0.719,0.518-1.144
						c-1.928,1.73-5.123,3.712-10.07,4.464C105.257,380.32,105.118,380.51,105.148,380.713z"/>
				</g>
			</g>
		</g>
		<g>
			<g>
				<path style="fill:#FCBB8C;" d="M183.424,424.004l4.13,7.155c0,0,3.074,0.336,6.614-2.131l-4.663-8.44L183.424,424.004z"/>
				<g>
					<path style="fill:#FD4E5A;" d="M192.322,428.607c0,0,0.474-2.425,1.568-2.855c1.094-0.43,12.353,2.145,15.403,1.341
						c3.05-0.803,3.493,1.513,3.485,2.81c-0.008,1.296-22.473,10.282-22.473,10.282s-3.703-6.194-3.942-8.517
						C186.125,429.346,190.363,430.123,192.322,428.607z"/>
					<g>
						<g>
							<path style="fill:#FFFFFF;" d="M198.997,430.971c-0.085,0.077-0.199,0.121-0.322,0.112c-0.239-0.017-0.419-0.224-0.402-0.463
								c0.006-0.08,0.149-1.97,1.02-3.099c1.157-1.504,2.763-1.211,2.831-1.198c0.235,0.046,0.389,0.273,0.343,0.509
								c-0.045,0.235-0.273,0.389-0.509,0.343c-0.044-0.008-1.152-0.193-1.978,0.876c-0.71,0.92-0.84,2.614-0.841,2.631
								C199.129,430.797,199.076,430.898,198.997,430.971z"/>
						</g>
						<g>
							<path style="fill:#FFFFFF;" d="M197.302,430.428c-0.085,0.077-0.199,0.121-0.322,0.112c-0.239-0.017-0.419-0.224-0.402-0.464
								c0.006-0.08,0.149-1.97,1.02-3.099c1.159-1.505,2.763-1.211,2.831-1.198c0.235,0.046,0.389,0.273,0.343,0.509
								c-0.045,0.235-0.273,0.389-0.509,0.343c-0.044-0.008-1.153-0.193-1.978,0.876c-0.712,0.924-0.84,2.614-0.841,2.631
								C197.435,430.253,197.382,430.355,197.302,430.428z"/>
						</g>
						<g>
							<path style="fill:#FFFFFF;" d="M201.006,431.107c-0.085,0.077-0.199,0.121-0.322,0.112c-0.239-0.017-0.419-0.225-0.402-0.464
								c0.006-0.08,0.149-1.97,1.02-3.099c1.158-1.505,2.763-1.211,2.831-1.198c0.235,0.046,0.389,0.273,0.343,0.509
								c-0.046,0.235-0.273,0.389-0.509,0.343c-0.044-0.008-1.153-0.192-1.978,0.876c-0.713,0.924-0.84,2.614-0.841,2.631
								C201.139,430.933,201.086,431.035,201.006,431.107z"/>
						</g>
					</g>
				</g>
			</g>
			<g>
				<g>
					<g>
						<path style="fill:#1A100E;" d="M125.193,415.137c0,0,20.672-40.204,34.426-35.953c9.171,2.835,31.005,42.253,31.005,42.253
							c-0.87,0.94-4.688,3.497-7.188,3.33c0,0-19.395-15.248-25.437-30.616c0,0-11.818,27.898-31.115,30.238
							C125.399,424.569,121.502,419.211,125.193,415.137z"/>
					</g>
				</g>
			</g>
		</g>
		<g>
			<g>
				<path style="fill:#FCBB8C;" d="M205.08,430.856l7.884,2.47c0,0,2.49-1.834,3.425-6.046l-9.146-3.054L205.08,430.856z"/>
				<g>
					<path style="fill:#FD4E5A;" d="M214.744,428.219c0,0-1.293-2.106-0.779-3.163c0.514-1.057,10.544-6.786,12.244-9.442
						c1.701-2.656,3.595-1.251,4.467-0.292c0.872,0.96-9.577,22.782-9.577,22.782s-6.919-2.051-8.667-3.599
						C210.684,432.959,214.328,430.661,214.744,428.219z"/>
					<g>
						<g>
							<path style="fill:#FFFFFF;" d="M221.256,425.44c-0.01,0.114-0.065,0.224-0.162,0.301c-0.188,0.149-0.46,0.118-0.609-0.069
								c-0.05-0.063-1.225-1.551-1.348-2.971c-0.166-1.89,1.213-2.762,1.272-2.798c0.204-0.126,0.471-0.062,0.597,0.142
								c0.126,0.204,0.062,0.471-0.142,0.597c-0.037,0.024-0.978,0.638-0.862,1.984c0.101,1.158,1.152,2.492,1.162,2.506
								C221.236,425.221,221.266,425.332,221.256,425.44z"/>
						</g>
						<g>
							<path style="fill:#FFFFFF;" d="M219.642,426.187c-0.01,0.114-0.065,0.224-0.162,0.301c-0.187,0.149-0.46,0.118-0.61-0.069
								c-0.05-0.063-1.225-1.551-1.348-2.971c-0.166-1.892,1.213-2.762,1.272-2.798c0.204-0.126,0.471-0.062,0.597,0.142
								c0.126,0.204,0.062,0.471-0.142,0.597c-0.037,0.024-0.979,0.639-0.862,1.984c0.101,1.162,1.152,2.492,1.162,2.505
								C219.622,425.969,219.652,426.08,219.642,426.187z"/>
						</g>
						<g>
							<path style="fill:#FFFFFF;" d="M222.828,424.18c-0.01,0.114-0.065,0.224-0.162,0.301c-0.187,0.149-0.46,0.119-0.61-0.069
								c-0.05-0.063-1.225-1.551-1.348-2.971c-0.166-1.892,1.213-2.762,1.272-2.798c0.204-0.126,0.471-0.062,0.597,0.142
								c0.126,0.204,0.062,0.472-0.142,0.597c-0.037,0.024-0.979,0.639-0.862,1.984c0.101,1.163,1.152,2.492,1.162,2.505
								C222.807,423.961,222.838,424.072,222.828,424.18z"/>
						</g>
					</g>
				</g>
			</g>
			<g>
				<g>
					<g>
						<g>
							<g>
								<path style="fill:#3C3C48;" d="M209.42,424.56c0.01,1.74-0.12,2.92-0.69,4.47c-0.11,0.3-0.23,0.61-0.37,0.95
									c-0.22,0.5-0.48,1.06-0.78,1.68c0,0-29.99-5.81-50.77-15.79c0,0-26.68,19.22-42.97,21.69c-1.55,0.23-3.08,0.24-4.54,0.04
									c-0.61-0.08-1.22-0.2-1.8-0.35c-6.93-1.76-12.04-8.09-11.62-15.37c0,0,41.7-18.77,57-19.98
									C168.17,400.68,209.42,424.56,209.42,424.56z"/>
							</g>
						</g>
					</g>
				</g>
				<g>
					<path style="fill:#1A100E;" d="M208.73,429.03c-0.11,0.3-0.23,0.61-0.37,0.95c-19.7-4.11-43.74-14.46-50.84-17.63
						c-1-0.45-2.16-0.27-2.97,0.45c-12.74,11.3-37.39,21.66-45.25,24.8c-0.61-0.08-1.22-0.2-1.8-0.35
						c5.63-2.2,32.83-13.18,46.38-25.2c1.11-0.98,2.7-1.22,4.04-0.62C165.03,414.61,189.11,424.98,208.73,429.03z"/>
				</g>
			</g>
		</g>
		<g>
			<path style="fill:#3C3C48;" d="M85.509,317.858c0,0-4.179,4.723-4.822,14.593c-0.524,8.039,0.194,18.558,7.379,18.033
				c7.185-0.525,18.988,1.69,22.963-4.637C115.003,339.521,85.509,317.858,85.509,317.858z"/>
			<g>
				<g>
					<path style="fill:#FB927E;" d="M106.855,331.645c0,0,1.941-2.679,3.453-0.515c1.512,2.164-0.469,8.662-4.108,7.143
						L106.855,331.645z"/>
					<g>
						<path style="fill:#E6765D;" d="M106.956,336.263c0.134-0.002,0.255-0.092,0.29-0.228c0.527-2.004,2.581-2.847,2.602-2.856
							c0.156-0.063,0.233-0.24,0.17-0.397c-0.062-0.157-0.24-0.233-0.396-0.171c-0.096,0.038-2.36,0.96-2.967,3.268
							c-0.043,0.163,0.054,0.33,0.218,0.373C106.901,336.26,106.929,336.264,106.956,336.263z"/>
					</g>
					<g>
						<path style="fill:#E6765D;" d="M109.027,335.224c0.057-0.001,0.114-0.018,0.164-0.051c0.14-0.094,0.178-0.283,0.084-0.424
							c-0.016-0.023-0.39-0.575-1.161-0.905c-0.154-0.067-0.334,0.005-0.401,0.161c-0.066,0.155,0.006,0.334,0.161,0.401
							c0.596,0.255,0.891,0.679,0.893,0.683C108.827,335.178,108.926,335.226,109.027,335.224z"/>
					</g>
				</g>
				<path style="fill:#FCBB8C;" d="M91.94,343.991l0.105,6.428c0,0,1.97,3.242,4.566,3.422c2.593,0.184,4.845-2.899,4.845-2.899
					l-0.109-6.654L91.94,343.991z"/>
				<path style="fill:#FB927E;" d="M91.94,343.991l0.047,2.852c1.771,1.902,4.871,2.535,9.431,1.785l-0.07-4.339L91.94,343.991z"/>
				<path style="fill:#FCBB8C;" d="M84.893,327.594c0.16,2.496,0.449,5.616,0.967,8.106c0.129,0.621,0.273,1.205,0.432,1.728
					c1.43,4.714,4.947,12.781,14.363,9.243c4.159-1.562,6.022-6.253,6.808-11.007c0.534-3.228,0.569-6.481,0.488-8.805
					c-0.085-2.372-1.415-4.519-3.498-5.654c-5.643-3.078-11.523-1.8-15.383-0.243C86.39,322.041,84.708,324.717,84.893,327.594z"/>
				<path style="fill:#3C3C48;" d="M101.124,332.116c0.011,0.686,0.374,1.237,0.81,1.229c0.436-0.007,0.781-0.569,0.77-1.255
					c-0.011-0.686-0.374-1.237-0.81-1.229C101.458,330.868,101.113,331.43,101.124,332.116z"/>
				<path style="fill:#3C3C48;" d="M91.371,332.276c0.011,0.686,0.374,1.237,0.81,1.229c0.436-0.007,0.781-0.569,0.77-1.255
					c-0.011-0.686-0.374-1.237-0.81-1.229C91.704,331.028,91.359,331.59,91.371,332.276z"/>
				<path style="fill:#3C3C48;" d="M103.099,328.384c-0.659-0.175-1.989-0.47-3.387-0.451c-0.368,0.005-0.644,0.337-0.573,0.697
					l0.002,0.009c0.057,0.288,0.318,0.489,0.612,0.47c0.95-0.06,3.449,0.033,4.636,0.491c0.021-0.205-0.104-0.428-0.279-0.624
					C103.844,328.68,103.484,328.486,103.099,328.384z"/>
				<path style="fill:#3C3C48;" d="M90.337,328.619c0.653-0.196,1.973-0.534,3.371-0.561c0.368-0.007,0.655,0.315,0.596,0.678
					l-0.002,0.009c-0.047,0.29-0.302,0.499-0.596,0.49c-0.952-0.029-3.446,0.146-4.617,0.643c-0.028-0.204,0.09-0.431,0.258-0.633
					C89.602,328.939,89.956,328.733,90.337,328.619z"/>
				<g>
					<path style="fill:#FB927E;" d="M96.621,337.86c0.234-0.004,0.468-0.049,0.661-0.169c0.177-0.11,0.395-0.33,0.432-0.753
						c0.098-1.124-0.247-4.637-0.262-4.787c-0.016-0.168-0.166-0.291-0.334-0.274c-0.168,0.017-0.29,0.166-0.274,0.334
						c0.004,0.036,0.354,3.606,0.261,4.673c-0.016,0.186-0.091,0.253-0.146,0.287c-0.284,0.176-0.949,0.012-1.227-0.096
						c-0.157-0.062-0.334,0.017-0.395,0.174c-0.061,0.157,0.016,0.334,0.174,0.395C95.591,337.676,96.105,337.868,96.621,337.86z"/>
				</g>
				<path style="fill:#FFFFFF;" d="M100.53,339.725c-0.212,1.165-0.944,3.315-3.529,3.357c-2.591,0.042-3.35-1.898-3.621-3.24
					L100.53,339.725z"/>
				<g>
					<path style="fill:#FB927E;" d="M97.067,344.863c0.746-0.012,1.398-0.425,1.425-0.442c0.142-0.091,0.183-0.28,0.092-0.422
						c-0.091-0.142-0.279-0.183-0.421-0.093l0,0c-0.005,0.003-0.537,0.337-1.106,0.346c-0.616,0.01-1.173-0.307-1.178-0.31
						c-0.146-0.084-0.333-0.035-0.417,0.111c-0.085,0.146-0.035,0.332,0.11,0.417C95.6,344.487,96.277,344.876,97.067,344.863z"/>
				</g>
				<g>
					<path style="fill:#FCBB8C;" d="M86.4,331.98c0,0-2.028-2.614-3.468-0.401c-1.44,2.212,0.752,8.642,4.34,7.005L86.4,331.98z"/>
					<path style="fill:#FFFFFF;" d="M85.003,338.766c0.007,0.395,0.332,0.71,0.727,0.704c0.395-0.007,0.71-0.332,0.704-0.727
						c-0.007-0.395-0.332-0.71-0.727-0.704C85.311,338.045,84.996,338.371,85.003,338.766z"/>
					<g>
						<path style="fill:#FB927E;" d="M86.45,336.599c-0.133,0.002-0.257-0.084-0.298-0.218c-0.593-1.986-2.673-2.761-2.694-2.769
							c-0.158-0.057-0.241-0.233-0.183-0.391c0.057-0.158,0.232-0.241,0.39-0.184c0.097,0.035,2.39,0.882,3.073,3.169
							c0.048,0.162-0.044,0.332-0.205,0.38C86.505,336.595,86.478,336.599,86.45,336.599z"/>
					</g>
					<g>
						<path style="fill:#FB927E;" d="M84.347,335.628c-0.057,0.001-0.114-0.014-0.166-0.046c-0.143-0.089-0.187-0.277-0.098-0.421
							c0.015-0.024,0.371-0.588,1.131-0.943c0.152-0.072,0.334-0.005,0.406,0.147c0.071,0.153,0.005,0.334-0.147,0.406
							c-0.587,0.275-0.868,0.707-0.871,0.712C84.545,335.576,84.447,335.626,84.347,335.628z"/>
					</g>
				</g>
			</g>
			<path style="fill:#3C3C48;" d="M83.655,327.117c0.103,0.277,0.378,0.451,0.744,0.551c-0.015,0.674,0.069,1.483,0.148,2.258
				c0.449,4.407,1.575,5.164,1.809,4.069c0.154-0.728,0.076-4.884-0.026-6.238c0.871-0.072,1.614-0.229,1.614-0.229l0.953-4.301
				l0.428,4.226c1.544,0.509,5.113-0.405,5.113-0.405l1.132-4.243l0.81,4.052c2.321,1.084,5.188,0.29,5.188,0.29l0.59-4.394
				l1.599,4.358c0,0,4.942,1.682,4.967-0.081c0.016-1.026-0.783-3.902-1.454-6.13c-0.732-2.429-2.369-4.464-4.556-5.592
				c-6.148-3.172-12.564-1.326-14.754,0.031C83.317,318.212,83.655,327.117,83.655,327.117z"/>
			<path style="fill:#3C3C48;" d="M105.866,317.851c0,0,4.124,4.744,5.595,13.315c1.471,8.571,1.375,14.37-2.395,16.769
				c-5.391,3.432-4.49-2.102-4.437-3.815c0.053-1.713,4.743-6.47,1.346-19.594C104.878,320.289,105.866,317.851,105.866,317.851z"/>
		</g>
		<g>
			<path style="fill:#FCBB8C;" d="M77.098,360.106c0,0-1.826,8.737-3.893,17.122c-0.35,1.424-0.703,2.875-1.052,4.322
				c-1.469,6.079-2.838,12.078-3.448,15.63c-1.336,7.778-1.195,22.418-1.108,27.189l5.566-0.197
				c0.309-5.473,4.612-22.534,4.453-27.763l0.635-2.461l2.322-9.01l3.636-14.109C84.21,370.828,83.694,359.998,77.098,360.106z"/>
			<path style="fill:#FCBB8C;" d="M73.306,422.684c-2.18-0.165-8.001,0.04-10.326,0.826c-3.167,1.071-5.058,3.633-7.179,4.198
				c-2.122,0.564,0.103,1.997,4.476,0.962c3.852-0.911,7.04-1.593,7.236-0.685c0.195,0.911-4.112,0.395-5.422,1.748
				c-1.311,1.351,2.148,1.209,4.387,1.51c1.44,0.192,2.544,0.03,4.668-0.79c1.498-0.578,1.791-1.815,1.864-3.91L73.306,422.684z"/>
		</g>
	</g>
	<g>
		<path style="fill:#3C3C48;" d="M353.066,433.188h-18.853c-2.564,0-4.836-1.651-5.628-4.09l-7.995-24.609
			c-0.327-1.007,0.375-2.053,1.431-2.135c14.557-1.128,28.971-1.13,43.243-0.003c1.054,0.083,1.755,1.129,1.428,2.135l-7.996,24.612
			C357.902,431.537,355.63,433.188,353.066,433.188z"/>
		<ellipse style="fill:#1A100E;" cx="343.768" cy="404.141" rx="21.248" ry="1.185"/>
		<g>
			<g>
				<g>
					<g>
						<path style="fill:#D7243A;" d="M342.643,359.29v44.708c0.72,0.201,1.395,0.201,1.992,0V359.29c0-0.55-0.446-0.996-0.996-0.996
							l0,0C343.089,358.293,342.643,358.74,342.643,359.29z"/>
					</g>
				</g>
				<g>
					<g>
						<path style="fill:#FD4E5A;" d="M343.376,371.904c0,0,10.169,9.634,21.802-9.133
							C365.178,362.771,345.032,358.737,343.376,371.904z"/>
					</g>
				</g>
				<g>
					<g>
						<path style="fill:#FD4E5A;" d="M344.315,363.828c0,0,11.379-8.17-4.858-23.133
							C339.457,340.695,331.696,359.719,344.315,363.828z"/>
					</g>
				</g>
				<g>
					<g>
						<path style="fill:#FD4E5A;" d="M344.079,388.708c0,0,11.358,8.2,20.398-11.945
							C364.476,376.763,343.973,375.438,344.079,388.708z"/>
					</g>
				</g>
				<g>
					<g>
						<path style="fill:#FD4E5A;" d="M343.639,395.922c0,0-0.4-14.003-21.888-8.925C321.751,386.997,333.17,404.078,343.639,395.922
							z"/>
					</g>
				</g>
				<g>
					<g>
						<path style="fill:#FD4E5A;" d="M344.673,375.971c0,0-0.057-14.008-21.663-9.459
							C323.01,366.512,334.007,383.867,344.673,375.971z"/>
					</g>
				</g>
			</g>
		</g>
	</g>
	<g>
		<path style="fill:#E3E5E8;" d="M385.644,79.264c0,0.93-0.379,1.779-0.997,2.393c-0.61,0.618-1.458,0.997-2.389,0.997h-72.462
			c-1.861,0-3.386-1.525-3.386-3.39c0-0.931,0.379-1.779,0.997-2.393c0.61-0.618,1.458-0.997,2.389-0.997h3.425
			c1.353-3.143,4.477-5.34,8.112-5.34c2.447,0,4.66,0.997,6.263,2.604c2.135-3.62,6.072-6.052,10.579-6.052
			c1.239,0,2.432,0.188,3.558,0.528c2.357-4.433,7.018-7.452,12.39-7.452c6.451,0,11.878,4.356,13.516,10.283
			c1.189-0.594,2.53-0.934,3.953-0.934c4.023,0,7.417,2.686,8.484,6.365h2.182C384.12,75.874,385.644,77.399,385.644,79.264z"/>
		<path style="fill:#E3E5E8;" d="M202.255,67.366c0,1.109-0.452,2.121-1.188,2.852c-0.727,0.737-1.738,1.189-2.848,1.189h-86.386
			c-2.219,0-4.036-1.818-4.036-4.041c0-1.109,0.452-2.121,1.189-2.852c0.727-0.737,1.739-1.189,2.848-1.189h4.083
			c1.613-3.747,5.337-6.367,9.671-6.367c2.918,0,5.556,1.188,7.467,3.104c2.545-4.316,7.238-7.215,12.612-7.215
			c1.477,0,2.899,0.224,4.241,0.629c2.81-5.285,8.366-8.884,14.771-8.884c7.691,0,14.16,5.193,16.113,12.258
			c1.417-0.708,3.016-1.114,4.712-1.114c4.796,0,8.842,3.202,10.114,7.588h2.601C200.437,63.325,202.255,65.143,202.255,67.366z"/>
		<g>
			<g>
				<g>
					<g>
						<path style="fill:#D7243A;" d="M51.073,214.68c0,2.569-2.09,4.658-4.658,4.658s-4.658-2.09-4.658-4.658
							c0-2.569,2.09-4.658,4.658-4.658S51.073,212.112,51.073,214.68z M49.611,214.68c0-1.763-1.434-3.197-3.197-3.197
							c-1.763,0-3.197,1.434-3.197,3.197s1.434,3.197,3.197,3.197C48.177,217.877,49.611,216.443,49.611,214.68z"/>
					</g>
					<g>
						<g>
							<g>
								<g>
									<path style="fill:#FD4E5A;" d="M70.088,208.396c0,2.569-2.09,4.658-4.658,4.658c-2.569,0-4.658-2.09-4.658-4.658
										c0-2.569,2.09-4.658,4.658-4.658C67.998,203.738,70.088,205.827,70.088,208.396z M68.627,208.396
										c0-1.763-1.434-3.197-3.197-3.197c-1.763,0-3.197,1.434-3.197,3.197c0,1.763,1.434,3.197,3.197,3.197
										C67.193,211.593,68.627,210.159,68.627,208.396z"/>
								</g>
							</g>
						</g>
					</g>
					<g>
						<g>
							<g>
								<path style="fill:#A61A21;" d="M70.684,188.397c-0.403,0-0.731,0.327-0.731,0.731v3.222c0,0.404,0.327,0.731,0.731,0.731
									c0.403,0,0.731-0.327,0.731-0.731v-3.222C71.414,188.725,71.087,188.397,70.684,188.397z"/>
							</g>
							<g>
								<path style="fill:#A61A21;" d="M70.684,182.758c-0.403,0-0.731,0.327-0.731,0.731v3.222c0,0.404,0.327,0.731,0.731,0.731
									c0.403,0,0.731-0.327,0.731-0.731v-3.222C71.414,183.085,71.087,182.758,70.684,182.758z"/>
							</g>
						</g>
						<g>
							<g>
								<path style="fill:#A61A21;" d="M75.207,187.189h-2.895c-0.404,0-0.731,0.327-0.731,0.731c0,0.404,0.327,0.731,0.731,0.731
									h2.895c0.403,0,0.731-0.327,0.731-0.731C75.937,187.516,75.61,187.189,75.207,187.189z"/>
							</g>
							<g>
								<path style="fill:#A61A21;" d="M69.055,187.189H66.16c-0.403,0-0.731,0.327-0.731,0.731c0,0.404,0.327,0.731,0.731,0.731
									h2.895c0.404,0,0.731-0.327,0.731-0.731C69.786,187.516,69.459,187.189,69.055,187.189z"/>
							</g>
						</g>
					</g>
					<g>
						<g>
							<g>
								<g>
									<g>
										<path style="fill:#FD4E5A;" d="M50.937,193.559c-0.403,0-0.731,0.327-0.731,0.731v3.223c0,0.404,0.327,0.731,0.731,0.731
											c0.404,0,0.731-0.327,0.731-0.731v-3.223C51.668,193.886,51.341,193.559,50.937,193.559z"/>
									</g>
								</g>
								<g>
									<g>
										<path style="fill:#FD4E5A;" d="M50.937,187.92c-0.403,0-0.731,0.327-0.731,0.731v3.222c0,0.404,0.327,0.731,0.731,0.731
											c0.404,0,0.731-0.327,0.731-0.731v-3.222C51.668,188.247,51.341,187.92,50.937,187.92z"/>
									</g>
								</g>
							</g>
							<g>
								<g>
									<g>
										<path style="fill:#FD4E5A;" d="M55.461,192.35h-2.895c-0.403,0-0.731,0.327-0.731,0.731c0,0.404,0.327,0.731,0.731,0.731
											h2.895c0.403,0,0.731-0.327,0.731-0.731C56.191,192.678,55.864,192.35,55.461,192.35z"/>
									</g>
								</g>
								<g>
									<g>
										<path style="fill:#FD4E5A;" d="M49.309,192.35h-2.895c-0.403,0-0.731,0.327-0.731,0.731c0,0.404,0.327,0.731,0.731,0.731
											h2.895c0.403,0,0.731-0.327,0.731-0.731C50.04,192.678,49.713,192.35,49.309,192.35z"/>
									</g>
								</g>
							</g>
						</g>
					</g>
				</g>
			</g>
			<g>
				<g>
					<g>
						<path style="fill:#D7243A;" d="M444.772,217.503c0,2.569-2.09,4.658-4.658,4.658c-2.568,0-4.658-2.09-4.658-4.658
							c0-2.569,2.09-4.658,4.658-4.658C442.682,212.845,444.772,214.935,444.772,217.503z M443.31,217.503
							c0-1.763-1.434-3.197-3.197-3.197c-1.763,0-3.197,1.434-3.197,3.197c0,1.763,1.434,3.197,3.197,3.197
							C441.876,220.7,443.31,219.266,443.31,217.503z"/>
					</g>
					<g>
						<g>
							<g>
								<g>
									<path style="fill:#FD4E5A;" d="M463.787,211.219c0,2.568-2.09,4.658-4.658,4.658c-2.569,0-4.658-2.09-4.658-4.658
										c0-2.569,2.09-4.658,4.658-4.658C461.697,206.561,463.787,208.65,463.787,211.219z M462.326,211.219
										c0-1.763-1.434-3.197-3.197-3.197c-1.763,0-3.197,1.434-3.197,3.197c0,1.763,1.434,3.197,3.197,3.197
										C460.891,214.416,462.326,212.982,462.326,211.219z"/>
								</g>
							</g>
						</g>
					</g>
					<g>
						<g>
							<g>
								<path style="fill:#A61A21;" d="M464.382,191.221c-0.403,0-0.731,0.327-0.731,0.731v3.222c0,0.404,0.327,0.731,0.731,0.731
									c0.404,0,0.731-0.327,0.731-0.731v-3.222C465.113,191.548,464.786,191.221,464.382,191.221z"/>
							</g>
							<g>
								<path style="fill:#A61A21;" d="M464.382,185.581c-0.403,0-0.731,0.327-0.731,0.731v3.222c0,0.404,0.327,0.731,0.731,0.731
									c0.404,0,0.731-0.327,0.731-0.731v-3.222C465.113,185.908,464.786,185.581,464.382,185.581z"/>
							</g>
						</g>
						<g>
							<g>
								<path style="fill:#A61A21;" d="M468.906,190.012h-2.895c-0.404,0-0.731,0.327-0.731,0.731c0,0.404,0.327,0.731,0.731,0.731
									h2.895c0.403,0,0.731-0.327,0.731-0.731C469.636,190.339,469.309,190.012,468.906,190.012z"/>
							</g>
							<g>
								<path style="fill:#A61A21;" d="M462.754,190.012h-2.895c-0.404,0-0.731,0.327-0.731,0.731c0,0.404,0.327,0.731,0.731,0.731
									h2.895c0.404,0,0.731-0.327,0.731-0.731C463.485,190.339,463.158,190.012,462.754,190.012z"/>
							</g>
						</g>
					</g>
					<g>
						<g>
							<g>
								<g>
									<g>
										<path style="fill:#FD4E5A;" d="M444.636,196.382c-0.403,0-0.731,0.327-0.731,0.731v3.223c0,0.403,0.327,0.731,0.731,0.731
											c0.404,0,0.731-0.327,0.731-0.731v-3.223C445.367,196.709,445.04,196.382,444.636,196.382z"/>
									</g>
								</g>
								<g>
									<g>
										<path style="fill:#FD4E5A;" d="M444.636,190.743c-0.403,0-0.731,0.327-0.731,0.731v3.222c0,0.404,0.327,0.731,0.731,0.731
											c0.404,0,0.731-0.327,0.731-0.731v-3.222C445.367,191.07,445.04,190.743,444.636,190.743z"/>
									</g>
								</g>
							</g>
							<g>
								<g>
									<g>
										<path style="fill:#FD4E5A;" d="M449.159,195.173h-2.895c-0.403,0-0.731,0.327-0.731,0.731
											c0,0.404,0.327,0.731,0.731,0.731h2.895c0.403,0,0.731-0.327,0.731-0.731C449.89,195.501,449.563,195.173,449.159,195.173
											z"/>
									</g>
								</g>
								<g>
									<g>
										<path style="fill:#FD4E5A;" d="M443.008,195.173h-2.895c-0.404,0-0.731,0.327-0.731,0.731
											c0,0.404,0.327,0.731,0.731,0.731h2.895c0.404,0,0.731-0.327,0.731-0.731
											C443.739,195.501,443.411,195.173,443.008,195.173z"/>
									</g>
								</g>
							</g>
						</g>
					</g>
				</g>
			</g>
		</g>
		<g>
			<path style="fill:#E3E5E8;" d="M56.469,283.75h8.817c1.026,0,1.857-0.832,1.857-1.857v-31.929h5.711
				c0.885,0,1.324-1.075,0.691-1.694l-5.468-5.354l-6.507-6.372c-0.384-0.376-0.999-0.376-1.383,0l-6.507,6.372l-5.47,5.354
				c-0.633,0.619-0.194,1.694,0.691,1.694h5.71v31.929C54.611,282.918,55.443,283.75,56.469,283.75z"/>
		</g>
		<g>
			<path style="fill:#E3E5E8;" d="M450.719,398.5h8.816c1.026,0,1.857-0.832,1.857-1.857v-31.929h5.711
				c0.885,0,1.324-1.075,0.691-1.694l-5.468-5.354l-6.507-6.372c-0.384-0.376-0.999-0.376-1.383,0l-6.507,6.372l-5.47,5.354
				c-0.633,0.619-0.194,1.694,0.691,1.694h5.71v31.929C448.861,397.668,449.693,398.5,450.719,398.5z"/>
		</g>
	</g>
</g>
<g id="DESIGNED_BY_FREEPIK">
	<g>
		<g id="XMLID_1_">
			<g id="XMLID_20_">
				<path id="XMLID_28_" style="fill:#112129;" d="M260.104,465.465c-0.432,0.443-0.803,0.931-1.108,1.453l-0.465-0.241
					c-0.067-0.298-0.349-0.503-0.659-0.466c-0.331,0.039-0.568,0.339-0.529,0.67c0.039,0.331,0.339,0.568,0.67,0.529
					c0.065-0.008,0.127-0.026,0.183-0.052l0.452,0.234c-0.251,0.554-0.433,1.139-0.539,1.744l0.747,0.132
					c0.23-1.306,0.85-2.507,1.792-3.473L260.104,465.465z"/>
				<path id="XMLID_27_" style="fill:#112129;" d="M265.592,463.163c-0.171,0-0.341,0.006-0.51,0.017l-0.074-0.626
					c0.188-0.149,0.296-0.389,0.266-0.645c-0.046-0.393-0.402-0.674-0.795-0.628c-0.393,0.046-0.674,0.402-0.628,0.795
					c0.03,0.254,0.189,0.461,0.405,0.564l0.073,0.624c-0.714,0.116-1.403,0.332-2.06,0.646l0.327,0.684
					c0.934-0.447,1.942-0.673,2.995-0.673c0.496,0,0.993,0.053,1.475,0.158l0.161-0.741
					C266.692,463.222,266.142,463.163,265.592,463.163z"/>
				<path id="XMLID_26_" style="fill:#112129;" d="M272.194,465.711c0.331-0.04,0.566-0.341,0.526-0.672
					c-0.04-0.331-0.341-0.566-0.672-0.526c-0.309,0.038-0.535,0.304-0.53,0.609l-0.416,0.363c-0.418-0.43-0.89-0.813-1.408-1.139
					l-0.404,0.641c1.134,0.715,2.021,1.726,2.563,2.925l0.691-0.313c-0.251-0.554-0.568-1.072-0.942-1.545l0.402-0.351
					C272.065,465.716,272.129,465.719,272.194,465.711z"/>
				<path id="XMLID_25_" style="fill:#112129;" d="M265.044,473.372c-0.386,0.023-0.775,0.035-1.157,0.035
					c-0.88,0-1.733-0.061-2.478-0.179c-0.39-0.062-0.846-0.155-1.27-0.292c1.046,1.861,3.069,3.125,5.388,3.125
					c2.855,0,5.262-1.916,5.95-4.504c-0.682,0.449-1.505,0.825-2.459,1.123C267.839,473.047,266.464,473.286,265.044,473.372z"/>
				<path id="XMLID_21_" style="fill:#112129;" d="M265.592,464.68c-3.352,0-6.08,2.666-6.08,5.943c0,0.426,0.046,0.849,0.137,1.261
					c0.673,0.483,2.706,0.89,5.348,0.731c2.879-0.173,5.297-0.957,6.672-2.159c-0.005-0.195-0.021-0.39-0.045-0.582
					C271.244,466.913,268.65,464.68,265.592,464.68z M263.432,471.194c-1.02,0-1.85-0.83-1.85-1.85c0-1.02,0.83-1.85,1.85-1.85
					c1.02,0,1.85,0.83,1.85,1.85C265.282,470.365,264.452,471.194,263.432,471.194z M268.17,470.286c-0.75,0-1.36-0.61-1.36-1.36
					s0.61-1.361,1.36-1.361c0.75,0,1.361,0.61,1.361,1.361S268.92,470.286,268.17,470.286z"/>
			</g>
			<path id="XMLID_18_" style="fill:#112129;" d="M281.595,466.547c-0.295-0.116-0.805-0.309-1.382-0.237
				c-0.551,0.069-0.844,0.341-0.844,1.007v0.866h2.228v1.717h-2.228v5.455h-1.932v-5.455h-1.34v-1.717h1.34v-0.888
				c0-1.68,0.896-2.783,2.568-2.783c0.643,0,1.157,0.122,1.59,0.308L281.595,466.547z"/>
			<path id="XMLID_16_" style="fill:#112129;" d="M286.298,469.879c-0.177-0.03-0.358-0.046-0.526-0.046
				c-0.896,0-1.51,0.548-1.51,1.614v3.908h-1.932v-7.172h1.873v0.785c0.451-0.673,1.14-0.977,2.021-0.977
				c0.414,0,0.848,0.128,1.094,0.337L286.298,469.879z"/>
			<path id="XMLID_13_" style="fill:#112129;" d="M293.965,471.757c0,0.222-0.015,0.489-0.037,0.651h-5.085
				c0.207,1.036,0.933,1.488,1.843,1.488c0.622,0,1.295-0.252,1.813-0.688l1.132,1.243c-0.814,0.748-1.85,1.088-3.057,1.088
				c-2.198,0-3.723-1.495-3.723-3.753c0-2.258,1.48-3.797,3.627-3.797C292.544,467.99,293.958,469.522,293.965,471.757z
				 M288.851,471.091h3.175c-0.177-0.918-0.733-1.436-1.562-1.436C289.554,469.655,289.021,470.203,288.851,471.091z"/>
			<path id="XMLID_10_" style="fill:#112129;" d="M301.618,471.757c0,0.222-0.015,0.489-0.037,0.651h-5.085
				c0.207,1.036,0.933,1.488,1.843,1.488c0.622,0,1.295-0.252,1.813-0.688l1.132,1.243c-0.814,0.748-1.85,1.088-3.057,1.088
				c-2.198,0-3.723-1.495-3.723-3.753c0-2.258,1.48-3.797,3.627-3.797C300.197,467.99,301.611,469.522,301.618,471.757z
				 M296.504,471.091h3.175c-0.178-0.918-0.733-1.436-1.562-1.436C297.207,469.655,296.674,470.203,296.504,471.091z"/>
			<path id="XMLID_7_" style="fill:#112129;" d="M309.964,471.764c0,2.154-1.495,3.775-3.471,3.775
				c-0.962,0-1.643-0.378-2.109-0.933v3.708h-1.924v-10.133h1.887v0.792c0.466-0.585,1.155-0.984,2.139-0.984
				C308.469,467.99,309.964,469.61,309.964,471.764z M304.287,471.764c0,1.132,0.747,1.976,1.843,1.976
				c1.14,0,1.85-0.881,1.85-1.976c0-1.095-0.71-1.976-1.85-1.976C305.035,469.788,304.287,470.632,304.287,471.764z"/>
			<path id="XMLID_4_" style="fill:#112129;" d="M313.068,465.836c0,0.696-0.54,1.229-1.236,1.229c-0.696,0-1.229-0.533-1.229-1.229
				c0-0.696,0.533-1.243,1.229-1.243C312.527,464.592,313.068,465.14,313.068,465.836z M312.809,475.354h-1.932v-7.172h1.932
				V475.354z"/>
			<path id="XMLID_2_" style="fill:#112129;" d="M316.032,470.736l2.701-2.554h2.368l-3.479,3.375l3.501,3.797h-2.376l-2.716-2.901
				v2.901H314.1v-10.658h1.932V470.736z"/>
		</g>
		<g>
			<path style="fill:#112129;" d="M184.412,475.289v-1.055c-0.527,0.718-1.391,1.23-2.387,1.23c-1.846,0-3.149-1.406-3.149-3.706
				c0-2.256,1.289-3.721,3.149-3.721c0.952,0,1.816,0.469,2.387,1.245v-3.765h1.099v9.77H184.412z M184.412,473.37v-3.208
				c-0.395-0.615-1.245-1.143-2.124-1.143c-1.421,0-2.27,1.172-2.27,2.739c0,1.567,0.85,2.724,2.27,2.724
				C183.168,474.483,184.017,473.986,184.412,473.37z"/>
			<path style="fill:#112129;" d="M186.932,471.744c0-2.051,1.465-3.706,3.486-3.706c2.139,0,3.398,1.67,3.398,3.794v0.279h-5.727
				c0.088,1.333,1.025,2.446,2.549,2.446c0.805,0,1.626-0.322,2.182-0.894l0.527,0.718c-0.703,0.703-1.655,1.084-2.812,1.084
				C188.44,475.465,186.932,473.956,186.932,471.744z M190.403,468.947c-1.509,0-2.256,1.274-2.314,2.358h4.643
				C192.718,470.25,192.015,468.947,190.403,468.947z"/>
			<path style="fill:#112129;" d="M194.607,474.351l0.571-0.791c0.469,0.542,1.362,1.011,2.329,1.011c1.084,0,1.67-0.513,1.67-1.216
				c0-1.714-4.38-0.659-4.38-3.281c0-1.098,0.952-2.036,2.636-2.036c1.201,0,2.051,0.454,2.622,1.026l-0.513,0.762
				c-0.424-0.513-1.201-0.894-2.109-0.894c-0.967,0-1.567,0.483-1.567,1.113c0,1.552,4.38,0.527,4.38,3.281
				c0,1.187-0.952,2.138-2.783,2.138C196.306,475.465,195.325,475.113,194.607,474.351z"/>
			<path style="fill:#112129;" d="M201.477,466.471c0-0.41,0.337-0.747,0.732-0.747c0.41,0,0.747,0.337,0.747,0.747
				c0,0.41-0.337,0.732-0.747,0.732C201.814,467.203,201.477,466.881,201.477,466.471z M201.667,475.289v-7.075h1.099v7.075H201.667
				z"/>
			<path style="fill:#112129;" d="M204.582,477.105l0.556-0.82c0.586,0.703,1.289,0.967,2.3,0.967c1.172,0,2.27-0.571,2.27-2.124
				v-1.011c-0.513,0.718-1.377,1.26-2.373,1.26c-1.845,0-3.149-1.377-3.149-3.662c0-2.27,1.289-3.677,3.149-3.677
				c0.952,0,1.802,0.469,2.373,1.245v-1.069h1.098v6.87c0,2.344-1.641,3.076-3.369,3.076
				C206.237,478.16,205.417,477.926,204.582,477.105z M209.709,473.253v-3.091c-0.381-0.615-1.23-1.143-2.109-1.143
				c-1.421,0-2.27,1.128-2.27,2.695c0,1.553,0.849,2.695,2.27,2.695C208.478,474.41,209.328,473.868,209.709,473.253z"/>
			<path style="fill:#112129;" d="M217.413,475.289v-4.629c0-1.245-0.63-1.641-1.582-1.641c-0.865,0-1.685,0.527-2.095,1.099v5.17
				h-1.099v-7.075h1.099v1.025c0.498-0.586,1.465-1.201,2.519-1.201c1.48,0,2.256,0.747,2.256,2.285v4.966H217.413z"/>
			<path style="fill:#112129;" d="M219.932,471.744c0-2.051,1.465-3.706,3.486-3.706c2.139,0,3.398,1.67,3.398,3.794v0.279h-5.727
				c0.088,1.333,1.025,2.446,2.549,2.446c0.806,0,1.626-0.322,2.183-0.894l0.527,0.718c-0.703,0.703-1.655,1.084-2.812,1.084
				C221.441,475.465,219.932,473.956,219.932,471.744z M223.404,468.947c-1.509,0-2.256,1.274-2.314,2.358h4.643
				C225.718,470.25,225.015,468.947,223.404,468.947z"/>
			<path style="fill:#112129;" d="M233.35,475.289v-1.055c-0.527,0.718-1.392,1.23-2.388,1.23c-1.846,0-3.149-1.406-3.149-3.706
				c0-2.256,1.289-3.721,3.149-3.721c0.952,0,1.817,0.469,2.388,1.245v-3.765h1.098v9.77H233.35z M233.35,473.37v-3.208
				c-0.396-0.615-1.245-1.143-2.124-1.143c-1.421,0-2.27,1.172-2.27,2.739c0,1.567,0.849,2.724,2.27,2.724
				C232.105,474.483,232.954,473.986,233.35,473.37z"/>
			<path style="fill:#112129;" d="M239.692,475.289v-9.77h1.098v3.765c0.572-0.776,1.421-1.245,2.388-1.245
				c1.845,0,3.149,1.465,3.149,3.721c0,2.299-1.304,3.706-3.149,3.706c-0.996,0-1.86-0.513-2.388-1.23v1.055H239.692z
				 M242.9,474.483c1.436,0,2.285-1.157,2.285-2.724c0-1.568-0.85-2.739-2.285-2.739c-0.864,0-1.728,0.527-2.109,1.143v3.208
				C241.171,473.986,242.036,474.483,242.9,474.483z"/>
			<path style="fill:#112129;" d="M247.528,477.061c0.161,0.073,0.425,0.117,0.601,0.117c0.483,0,0.805-0.161,1.055-0.747
				l0.469-1.069l-2.959-7.148h1.187l2.358,5.8l2.344-5.8h1.201l-3.545,8.51c-0.425,1.025-1.143,1.421-2.08,1.435
				c-0.234,0-0.601-0.044-0.806-0.103L247.528,477.061z"/>
		</g>
	</g>
</g>
</svg>
